{"glyphs":{"0":{"ha":833,"x_min":33,"x_max":790,"o":"m 790 500 q 686 141 790 276 q 410 7 582 7 q 136 115 239 7 q 33 410 33 224 q 153 764 33 629 q 452 900 273 900 q 699 793 608 900 q 790 500 790 687 m 656 472 q 597 701 656 616 q 440 786 538 786 q 248 686 324 786 q 168 415 168 583 q 235 201 168 280 q 408 123 300 123 q 583 224 511 123 q 656 472 656 325 z "},"1":{"ha":639,"x_min":40,"x_max":603,"o":"m 603 71 q 371 -16 603 -16 q 40 97 40 -16 q 92 150 40 150 q 144 140 103 150 q 229 125 193 130 q 342 775 342 513 l 342 785 q 102 705 172 705 q 53 766 53 705 q 77 819 53 802 q 150 848 92 829 q 304 905 186 861 q 397 930 372 930 q 481 786 481 930 q 366 115 481 561 q 399 114 376 114 q 490 127 441 114 q 546 140 539 140 q 603 71 603 140 z "},"2":{"ha":694,"x_min":0,"x_max":684,"o":"m 684 147 q 567 31 684 80 q 236 -24 439 -24 q 0 65 0 -24 q 35 121 0 94 q 127 182 81 151 q 365 401 292 298 q 446 644 446 513 q 329 812 446 799 q 123 717 184 717 q 64 770 64 717 q 114 843 64 798 q 371 937 219 937 q 583 656 583 937 q 222 110 583 350 q 315 102 279 102 q 504 151 392 102 q 582 189 543 170 q 633 204 616 204 q 684 147 684 204 z "},"3":{"ha":639,"x_min":-7,"x_max":600,"o":"m 600 292 q 506 67 600 150 q 244 -16 411 -16 q -7 113 -7 -16 q 14 169 -7 146 q 66 191 35 191 q 132 127 130 191 q 241 100 182 100 q 406 151 347 100 q 464 293 464 201 q 359 473 464 414 q 294 496 331 490 q 236 501 265 498 q 163 568 163 511 q 221 628 163 628 q 332 603 243 628 q 419 713 419 603 q 301 822 419 822 q 236 809 277 822 q 178 796 194 796 q 127 856 127 796 q 179 911 127 890 q 322 932 231 932 q 491 872 427 932 q 554 718 554 812 q 460 546 554 618 q 600 292 600 457 z "},"4":{"ha":681,"x_min":25,"x_max":660,"o":"m 660 387 q 611 338 660 356 q 461 310 569 323 q 437 112 444 207 q 432 17 435 64 q 413 -52 427 -32 q 364 -72 399 -72 q 297 20 297 -72 q 330 307 297 40 q 25 457 25 332 q 72 660 25 517 q 163 835 100 743 q 296 949 240 949 q 354 907 354 949 q 330 851 354 888 q 269 766 300 809 q 168 467 178 635 q 345 427 243 427 l 354 427 q 488 855 440 782 q 532 875 501 875 q 593 858 569 875 q 616 817 616 841 q 576 694 616 798 q 488 440 521 557 q 560 454 522 445 q 599 463 593 463 q 660 387 660 463 z "},"5":{"ha":688,"x_min":8,"x_max":637,"o":"m 637 318 q 536 56 637 157 q 275 -45 435 -45 q 83 12 157 -45 q 8 154 8 69 q 28 203 8 183 q 72 222 47 222 q 102 205 89 222 q 129 161 104 203 q 272 78 180 78 q 438 139 377 78 q 500 304 500 200 q 437 499 500 419 q 288 579 374 579 q 182 557 237 579 q 115 534 127 534 q 62 591 62 534 q 113 907 62 765 q 231 968 134 968 q 500 918 369 968 q 578 850 578 888 q 553 803 578 823 q 492 783 528 783 q 383 809 458 783 q 268 835 307 835 q 233 832 267 835 q 200 682 200 765 q 318 700 264 700 q 548 594 458 700 q 637 318 637 488 z "},"6":{"ha":675,"x_min":58,"x_max":636,"o":"m 636 233 q 559 15 636 97 q 354 -68 481 -68 q 135 50 212 -68 q 58 392 58 168 q 156 846 58 681 q 411 1007 251 1007 q 583 928 515 1007 q 621 851 621 884 q 594 805 621 825 q 536 785 568 785 q 500 807 515 785 q 395 885 449 885 q 264 779 315 885 q 200 467 209 668 q 366 536 261 536 q 559 450 483 536 q 636 233 636 364 m 497 204 q 449 357 497 298 q 329 415 401 415 q 238 373 272 415 q 204 261 204 332 q 252 111 204 172 q 368 50 300 50 q 462 91 427 50 q 497 204 497 132 z "},"7":{"ha":736,"x_min":9,"x_max":732,"o":"m 732 799 q 714 714 732 769 q 436 193 623 434 q 260 9 349 81 q 153 -52 184 -52 q 113 -34 130 -52 q 96 5 96 -16 q 182 123 96 35 q 349 302 239 180 q 579 749 500 488 q 342 789 469 789 q 154 771 250 789 q 155 747 155 762 q 72 650 155 650 q 9 774 9 650 q 64 868 9 844 q 345 914 168 914 q 732 799 732 914 z "},"8":{"ha":736,"x_min":33,"x_max":681,"o":"m 681 661 q 553 475 681 535 q 677 278 677 404 q 586 68 677 149 q 336 -16 492 -16 q 117 59 201 -16 q 33 253 33 134 q 170 479 33 408 q 74 681 74 559 q 157 861 74 788 q 371 933 240 933 q 594 857 508 933 q 681 661 681 781 m 538 653 q 491 772 538 727 q 370 818 444 818 q 257 778 300 818 q 215 672 215 737 q 259 564 215 606 q 372 521 304 521 q 493 557 448 521 q 538 653 538 593 m 530 265 q 482 378 530 334 q 354 421 434 421 q 222 377 271 421 q 172 260 172 332 q 217 146 172 189 q 338 104 262 104 q 480 149 428 104 q 530 265 530 193 z "},"9":{"ha":729,"x_min":37,"x_max":675,"o":"m 675 568 q 319 -46 675 208 q 176 -106 235 -106 q 113 -47 113 -106 q 137 -4 113 -25 q 203 43 146 3 q 389 191 332 132 q 507 396 472 278 q 323 330 431 330 q 151 387 224 330 q 37 623 37 477 q 127 846 37 755 q 353 937 217 937 q 588 839 501 937 q 675 568 675 741 m 530 631 q 480 764 530 712 q 349 815 431 815 q 226 761 275 815 q 178 625 178 707 q 229 498 178 552 q 346 444 280 444 q 475 500 419 444 q 530 631 530 555 z "}," ":{"ha":416,"x_min":0,"x_max":0,"o":""},"!":{"ha":347,"x_min":96,"x_max":306,"o":"m 306 930 q 275 793 306 911 q 220 408 229 615 q 212 300 215 315 q 164 264 202 264 q 110 309 125 264 q 96 452 96 351 q 165 864 96 631 q 261 981 200 981 q 306 930 306 981 m 258 78 q 237 20 258 43 q 184 -3 216 -3 q 131 20 153 -3 q 109 78 109 43 q 130 132 109 111 q 184 154 152 154 q 238 133 217 154 q 258 78 258 112 z "},"\"":{"ha":507,"x_min":94,"x_max":465,"o":"m 465 885 q 423 656 465 754 q 342 567 385 567 q 300 606 300 567 q 313 643 300 614 q 339 708 330 684 q 361 859 353 751 q 375 940 366 918 q 416 966 387 966 q 465 885 465 966 m 204 921 q 197 865 204 904 q 187 799 189 821 q 183 682 186 752 q 144 623 177 623 q 94 733 94 623 q 161 968 94 968 q 204 921 204 968 z "},"#":{"ha":945,"x_min":-7,"x_max":939,"o":"m 939 654 q 827 597 939 597 l 775 597 q 689 596 724 597 l 616 404 q 775 393 741 401 q 825 340 825 382 q 757 290 825 290 q 701 295 751 290 q 585 304 642 301 q 518 104 551 204 q 456 37 492 37 q 406 89 406 37 q 478 298 406 94 q 278 290 378 290 q 216 109 247 199 q 161 46 195 46 q 113 107 113 46 q 170 289 113 141 q 35 298 60 292 q -7 345 -7 307 q 62 395 -7 395 q 109 392 63 395 q 210 389 158 390 q 297 591 228 431 q 219 589 261 591 q 178 587 183 587 q 102 635 102 587 q 158 688 102 678 q 338 696 179 692 q 401 870 369 783 q 465 930 427 930 q 509 890 509 930 q 449 697 509 857 l 619 697 q 695 874 683 852 q 765 935 727 935 q 808 890 808 935 q 783 819 808 872 q 729 696 746 745 l 747 696 q 841 700 795 696 q 884 704 886 704 q 939 654 939 704 m 585 597 l 407 597 l 317 389 q 510 399 427 391 l 585 597 z "},"$":{"ha":646,"x_min":24,"x_max":614,"o":"m 614 764 q 526 667 614 667 q 465 710 465 667 q 475 745 465 725 l 475 747 q 444 821 475 793 q 367 850 413 850 q 248 802 303 850 q 195 711 195 757 q 228 656 195 680 q 323 608 248 642 q 531 480 471 542 q 602 304 602 409 q 534 140 602 209 q 350 56 465 70 q 319 -92 334 -18 q 256 -136 303 -136 q 186 -74 186 -136 q 205 60 186 -44 q 24 243 24 102 q 58 329 24 294 q 140 364 92 364 q 188 346 170 364 q 207 300 207 328 q 180 269 207 284 q 154 239 154 254 q 193 191 154 214 q 294 167 237 167 q 417 207 368 167 q 467 304 467 246 q 285 486 467 397 q 123 571 144 555 q 60 701 60 619 q 121 849 60 780 q 288 950 184 922 q 309 1090 293 1053 q 380 1133 329 1133 q 432 1115 412 1133 q 452 1067 452 1096 q 444 1024 452 1054 q 432 965 435 985 q 566 895 517 949 q 614 764 614 841 z "},"%":{"ha":1083,"x_min":26,"x_max":1060,"o":"m 1060 229 q 995 54 1060 121 q 827 -12 929 -12 q 700 25 750 -12 q 639 127 650 62 q 572 233 572 144 q 785 504 572 504 q 985 429 909 504 q 1060 229 1060 355 m 936 228 q 890 353 936 307 q 774 400 845 400 q 688 264 688 400 q 692 216 688 250 q 749 182 728 207 q 778 129 759 169 q 827 92 795 92 q 936 228 936 92 m 787 876 q 728 701 787 827 q 524 363 652 538 q 218 85 319 85 q 157 158 172 85 q 616 750 493 429 q 664 871 662 867 q 736 913 688 913 q 787 876 787 913 m 493 663 q 424 479 493 551 q 250 407 355 407 q 87 471 148 407 q 26 646 26 536 q 85 837 26 770 q 252 904 143 904 q 430 841 366 904 q 493 663 493 778 m 367 659 q 220 798 367 795 q 153 657 153 756 q 185 541 153 584 q 267 497 217 497 q 337 544 307 497 q 367 659 367 590 z "},"&":{"ha":833,"x_min":53,"x_max":854,"o":"m 854 550 q 789 436 854 507 q 494 261 671 307 q 484 89 492 140 q 407 -32 464 -32 q 347 36 347 -32 q 358 106 347 40 q 372 245 370 177 q 356 245 366 245 q 342 244 347 244 q 129 302 205 244 q 53 461 53 361 q 116 622 53 560 q 279 684 178 684 q 334 673 308 684 q 265 850 310 755 q 229 945 229 927 q 278 994 229 994 q 408 838 350 994 q 490 379 469 671 q 641 448 574 394 q 755 570 681 481 q 807 600 781 600 q 854 550 854 600 m 376 357 q 352 532 375 479 q 268 587 327 587 q 197 559 224 587 q 170 486 170 532 q 213 390 170 428 q 330 353 257 353 q 376 357 353 353 z "},"'":{"ha":298,"x_min":89,"x_max":211,"o":"m 211 754 q 201 606 211 642 q 147 561 189 561 q 93 644 93 561 q 95 693 93 661 q 97 743 97 726 q 93 821 97 772 q 89 890 89 870 q 142 957 89 957 q 206 877 193 957 q 211 754 211 847 z "},"(":{"ha":424,"x_min":58,"x_max":432,"o":"m 432 957 q 407 903 432 935 q 342 829 374 866 q 184 371 184 644 q 273 77 184 208 q 314 21 294 49 q 332 -22 332 -5 q 271 -74 332 -74 q 214 -43 243 -74 q 58 378 58 118 q 142 741 58 588 q 277 939 211 867 q 374 1004 337 1004 q 432 957 432 1004 z "},")":{"ha":375,"x_min":69,"x_max":301,"o":"m 301 501 q 229 82 301 286 q 182 -20 203 9 q 119 -54 156 -54 q 69 -4 69 -54 q 103 97 69 6 q 178 472 178 302 q 136 747 178 625 q 90 878 113 812 q 71 958 71 935 q 122 1011 71 1011 q 186 968 159 1011 q 241 842 205 938 q 301 501 301 683 z "},"*":{"ha":597,"x_min":36,"x_max":604,"o":"m 604 750 q 568 718 604 718 q 549 719 561 718 q 532 720 536 720 q 378 677 457 720 q 435 612 400 640 q 492 572 463 592 q 528 519 528 547 q 508 487 528 501 q 463 472 489 472 q 293 621 408 472 q 182 537 231 590 q 121 465 152 501 q 81 444 100 444 q 36 503 36 444 q 80 581 36 535 q 218 679 131 633 q 46 835 46 774 q 97 882 46 882 q 157 848 124 882 q 233 782 207 799 q 211 903 228 844 q 196 960 196 956 q 235 996 196 996 q 336 765 336 996 q 513 819 449 819 q 578 799 552 819 q 604 750 604 779 z "},"+":{"ha":764,"x_min":66,"x_max":708,"o":"m 708 395 q 648 346 708 346 q 578 356 635 346 q 444 379 496 372 q 421 168 427 195 q 364 102 407 102 q 314 170 314 102 q 322 241 314 173 q 336 396 332 319 q 133 408 235 402 q 66 458 66 415 q 144 511 66 511 q 346 498 228 511 q 358 699 352 599 q 412 764 368 764 q 467 689 467 764 q 463 622 467 681 q 457 484 459 549 q 647 451 614 460 q 708 395 708 433 z "},",":{"ha":416,"x_min":89,"x_max":326,"o":"m 326 134 q 280 -37 326 36 q 200 -102 240 -102 q 155 -58 155 -102 q 188 12 155 -43 q 220 117 220 66 q 219 125 220 119 q 218 135 218 131 q 168 125 193 125 q 89 216 89 125 q 195 309 89 309 q 290 261 253 309 q 326 134 326 214 z "},"-":{"ha":403,"x_min":24,"x_max":376,"o":"m 376 517 q 300 447 376 447 q 277 449 297 447 q 239 450 256 450 q 165 445 216 450 q 85 440 113 440 q 24 503 24 440 q 119 578 24 563 q 267 583 150 583 q 376 517 376 583 z "},".":{"ha":416,"x_min":102,"x_max":311,"o":"m 311 175 q 281 94 311 125 q 201 64 251 64 q 130 93 158 64 q 102 168 102 123 q 133 241 102 211 q 208 271 163 271 q 311 175 311 271 z "},"/":{"ha":514,"x_min":16,"x_max":490,"o":"m 490 1039 q 436 916 490 1021 q 340 715 375 796 q 222 364 272 553 q 169 109 189 239 q 149 -11 151 -4 q 123 -61 134 -48 q 81 -78 108 -78 q 34 -59 53 -78 q 16 -8 16 -39 q 71 290 16 55 q 176 657 124 515 q 338 1021 263 892 q 428 1092 378 1092 q 472 1076 454 1092 q 490 1039 490 1060 z "},":":{"ha":416,"x_min":71,"x_max":311,"o":"m 278 624 q 247 556 278 585 q 172 528 215 528 q 99 556 128 528 q 71 632 71 585 q 99 700 71 674 q 176 726 128 726 q 249 697 220 726 q 278 624 278 667 m 311 193 q 278 123 311 154 q 200 93 244 93 q 123 124 155 93 q 92 199 92 155 q 121 270 92 241 q 196 298 151 298 q 280 270 249 298 q 311 193 311 242 z "},";":{"ha":416,"x_min":64,"x_max":346,"o":"m 314 561 q 281 492 314 519 q 195 464 248 464 q 117 491 146 464 q 87 561 87 518 q 119 630 87 603 q 204 657 151 657 q 282 629 251 657 q 314 561 314 600 m 346 65 q 290 -83 346 -20 q 180 -142 239 -142 q 131 -102 131 -142 q 144 -73 131 -84 q 174 -56 146 -72 q 229 25 229 -23 q 218 71 229 50 q 170 66 191 66 q 64 147 64 66 q 98 216 64 186 q 180 245 132 245 q 302 198 258 245 q 346 65 346 150 z "},"<":{"ha":764,"x_min":139,"x_max":656,"o":"m 656 766 q 632 717 656 738 q 574 677 621 706 q 277 453 435 595 q 475 284 376 357 q 581 210 528 247 q 624 144 624 179 q 566 89 624 89 q 392 189 521 89 q 139 449 139 385 q 237 587 139 498 q 424 730 316 659 q 596 822 561 822 q 656 766 656 822 z "},"=":{"ha":764,"x_min":62,"x_max":720,"o":"m 720 590 q 628 529 720 529 q 527 535 616 529 q 361 542 439 542 q 181 534 264 542 q 110 526 98 526 q 62 576 62 526 q 140 647 62 630 q 378 660 200 660 q 637 651 582 660 q 720 590 720 638 m 677 288 q 611 235 677 235 q 468 259 597 235 q 224 283 338 283 q 188 283 212 283 q 154 282 165 282 q 75 340 75 282 q 172 400 75 400 q 574 366 399 400 q 677 288 677 345 z "},">":{"ha":764,"x_min":81,"x_max":664,"o":"m 664 492 q 500 272 664 418 q 283 112 386 170 q 151 62 195 62 q 113 80 129 62 q 97 121 97 98 q 131 172 97 150 q 220 221 176 197 q 519 475 378 309 q 309 612 428 553 q 140 690 224 651 q 81 761 81 720 q 99 804 81 786 q 143 822 117 822 q 176 815 157 822 q 562 618 397 738 q 664 492 664 545 z "},"?":{"ha":542,"x_min":22,"x_max":513,"o":"m 513 720 q 418 533 513 619 q 359 484 389 509 q 294 403 319 447 q 267 294 283 382 q 197 220 253 220 q 135 301 135 220 q 171 439 135 368 q 261 554 206 511 q 349 631 329 608 q 382 718 382 670 q 341 803 382 769 q 236 836 301 836 q 143 801 193 836 q 75 766 94 766 q 38 784 54 766 q 22 828 22 802 q 84 907 22 872 q 245 946 151 946 q 440 884 368 946 q 513 720 513 823 m 306 72 q 280 8 306 33 q 211 -17 254 -17 q 144 7 170 -17 q 118 71 118 32 q 145 137 118 111 q 214 163 172 163 q 280 137 254 163 q 306 72 306 112 z "},"@":{"ha":1389,"x_min":68,"x_max":1315,"o":"m 1315 559 q 1227 243 1315 356 q 993 132 1142 132 q 804 229 866 132 q 635 144 736 144 q 476 212 532 144 q 419 404 419 279 q 499 648 419 555 q 708 741 579 741 q 848 692 784 741 q 903 729 870 729 q 956 688 956 729 q 924 576 956 690 q 892 351 892 462 q 915 263 892 290 q 996 237 939 237 q 1150 316 1095 237 q 1206 543 1206 395 q 1070 835 1206 730 q 693 940 935 940 q 313 809 448 940 q 178 444 178 679 q 319 79 178 214 q 705 -56 460 -56 q 1004 -7 880 -56 q 1059 18 1011 -4 q 1097 29 1084 29 q 1126 15 1114 29 q 1139 -18 1139 1 q 1023 -113 1139 -69 q 704 -161 893 -161 q 234 -2 401 -161 q 68 444 68 157 q 233 882 68 723 q 686 1042 397 1042 q 1149 914 984 1042 q 1315 559 1315 786 m 822 599 q 720 648 782 648 q 584 583 636 648 q 530 406 530 515 q 648 235 530 235 q 785 330 738 235 q 822 599 789 473 z "},"A":{"ha":1243,"x_min":-77,"x_max":1215,"o":"m 1215 -85 q 1152 -151 1215 -151 q 1053 -68 1107 -151 q 925 178 1014 -6 q 339 298 666 182 q -16 26 79 26 q -58 44 -40 26 q -77 87 -77 62 q -32 151 -77 115 q 58 222 14 186 q 204 354 135 283 q 87 449 87 400 q 106 497 87 477 q 150 517 124 517 q 212 498 171 517 q 297 460 283 465 q 604 983 570 819 q 624 1097 614 1040 q 688 1139 637 1139 q 743 1104 729 1139 q 757 1042 751 1084 q 768 971 763 991 q 1018 311 833 709 q 1078 315 1049 312 q 1105 317 1105 317 q 1181 249 1181 317 q 1103 179 1181 179 l 1083 179 q 1175 13 1109 125 q 1215 -85 1215 -58 m 861 313 q 672 814 752 549 q 429 408 574 595 q 861 313 640 331 z "},"B":{"ha":970,"x_min":-86,"x_max":909,"o":"m 909 264 q 754 -31 909 87 q 449 -127 625 -127 q 249 -96 361 -127 q 182 -161 237 -161 q 124 -127 140 -161 q 109 -18 109 -94 q 151 692 109 140 l 157 768 q 179 928 167 892 q 245 979 197 979 q 307 897 307 979 q 283 654 307 921 q 250 43 258 368 q 458 7 367 7 q 682 82 595 7 q 765 264 765 155 q 472 476 765 476 q 441 475 462 476 q 410 475 420 475 q 347 532 347 475 q 382 587 347 573 q 441 600 402 596 q 507 608 489 604 q 601 674 565 623 q 636 799 636 726 q 554 955 636 899 q 319 1010 472 1010 q 94 960 215 1010 q 35 932 65 946 q -25 918 1 918 q -69 935 -52 918 q -86 975 -86 952 q -20 1051 -86 1013 q 350 1141 135 1141 q 666 1051 549 1141 q 781 812 781 962 q 677 579 781 674 q 848 461 787 545 q 909 264 909 377 z "},"C":{"ha":1169,"x_min":72,"x_max":1108,"o":"m 1108 104 q 1015 -36 1108 39 q 618 -161 860 -161 q 215 -5 357 -161 q 72 437 72 152 q 216 885 72 712 q 632 1071 372 1071 q 994 956 853 1071 q 1047 876 1047 913 q 1026 828 1047 849 q 978 807 1005 807 q 928 831 960 807 q 629 936 781 936 q 328 802 440 936 q 215 439 215 669 q 618 -24 215 -24 q 946 87 848 -24 q 991 146 968 117 q 1040 172 1013 172 q 1089 153 1069 172 q 1108 104 1108 134 z "},"D":{"ha":1250,"x_min":82,"x_max":1208,"o":"m 1208 490 q 401 -134 1208 -134 q 260 -127 332 -134 q 193 -186 241 -186 q 148 -171 166 -186 q 129 -135 129 -156 q 152 24 129 -148 q 175 383 175 196 q 143 892 175 648 q 82 961 82 904 q 126 1022 82 1000 l 125 1032 q 124 1037 125 1034 q 123 1042 123 1040 q 191 1100 123 1100 q 257 1050 246 1100 q 518 1078 398 1078 q 1029 925 849 1078 q 1208 490 1208 772 m 1064 484 q 924 826 1064 708 q 517 945 783 945 q 277 917 422 945 q 311 385 311 649 q 286 4 311 187 q 375 1 318 1 q 827 68 679 1 q 1064 484 1064 176 z "},"E":{"ha":993,"x_min":26,"x_max":974,"o":"m 974 64 q 836 -46 974 6 q 521 -113 703 -96 q 197 -122 412 -122 q 94 -117 121 -122 q 26 -58 26 -104 q 45 -11 26 -31 q 90 8 64 8 l 153 8 q 186 704 186 173 q 183 951 186 726 q 137 951 161 951 q 113 950 113 950 q 41 1013 41 950 q 79 1070 41 1054 q 197 1084 113 1084 q 760 1021 549 1084 q 900 921 900 978 q 882 878 900 897 q 843 859 864 859 q 791 875 831 859 q 705 904 741 896 q 319 946 613 927 q 317 557 319 823 q 481 551 402 551 q 595 555 536 551 q 659 559 654 559 q 732 497 732 559 q 670 435 732 448 q 481 427 628 427 q 314 431 399 427 q 289 8 307 119 l 317 8 q 726 49 589 8 q 832 94 764 60 q 913 122 887 122 q 956 104 937 122 q 974 64 974 87 z "},"F":{"ha":764,"x_min":-53,"x_max":840,"o":"m 840 930 q 757 869 840 869 q 609 888 768 869 q 268 908 446 907 q 296 589 292 794 q 376 587 325 587 q 543 594 462 587 q 618 602 623 602 q 694 533 694 602 q 569 458 694 473 q 386 454 534 454 l 296 454 q 275 10 291 121 q 195 -134 255 -134 q 131 -68 131 -134 q 147 85 131 -90 q 163 460 163 260 q 134 896 163 756 q 22 880 55 880 q -53 950 -53 880 q 325 1040 -53 1040 q 739 1010 568 1040 q 840 930 840 991 z "},"G":{"ha":1158,"x_min":37,"x_max":1153,"o":"m 1153 400 q 1132 353 1153 374 q 1086 332 1112 332 q 1038 350 1069 332 q 978 382 998 374 q 968 197 968 289 q 983 0 968 90 q 999 -79 999 -91 q 979 -122 999 -104 q 933 -139 960 -139 q 840 68 855 -139 q 489 -151 728 -151 q 161 -5 283 -151 q 37 404 37 144 q 202 888 37 715 q 657 1061 366 1061 q 920 1012 810 1061 q 1022 916 1022 967 q 1003 868 1022 888 q 960 847 983 847 q 918 861 944 847 q 867 886 872 884 q 660 926 770 926 q 307 793 430 926 q 183 408 183 660 q 269 91 183 203 q 501 -20 352 -20 q 724 86 640 -20 q 847 407 807 190 q 742 419 785 419 q 630 402 691 419 q 557 385 569 385 q 515 405 534 385 q 497 453 497 426 q 568 526 497 497 q 775 555 644 555 q 1050 503 937 555 q 1153 400 1153 456 z "},"H":{"ha":1194,"x_min":89,"x_max":1078,"o":"m 1078 1015 q 1069 837 1078 1037 q 1061 416 1061 637 q 1063 104 1061 250 q 1065 -24 1065 -43 q 993 -125 1065 -125 q 936 -96 951 -125 q 922 -30 925 -77 q 920 127 920 18 l 920 428 q 693 427 838 427 q 278 433 426 427 q 271 129 271 273 q 271 36 271 85 q 272 -20 272 -14 q 257 -117 272 -89 q 199 -147 241 -147 q 142 -118 158 -147 q 126 -26 126 -91 q 135 446 126 106 q 89 503 89 468 q 139 562 89 550 q 170 994 150 752 q 250 1080 183 1080 q 317 999 317 1080 q 307 870 317 992 q 285 564 294 718 q 524 561 361 561 q 921 572 730 561 q 933 1010 926 928 q 1008 1107 941 1107 q 1078 1015 1078 1107 z "},"I":{"ha":551,"x_min":0,"x_max":541,"o":"m 541 -56 q 475 -145 541 -112 q 290 -178 410 -178 q 106 -152 172 -178 q 41 -83 41 -127 q 109 -12 41 -12 q 155 -22 124 -12 q 215 -39 202 -36 q 243 412 243 233 q 167 945 243 704 q 98 926 137 941 q 53 914 64 914 q 16 933 31 914 q 0 981 0 952 q 207 1079 0 1079 q 424 1041 344 1079 q 500 946 500 1005 q 457 893 500 893 q 406 906 447 893 q 313 932 353 923 q 383 412 383 686 q 351 -40 383 237 q 429 -12 378 -33 q 484 4 466 4 q 524 -13 507 4 q 541 -56 541 -31 z "},"J":{"ha":854,"x_min":-3,"x_max":879,"o":"m 879 978 q 859 922 879 943 q 807 900 839 900 q 779 907 804 900 q 715 922 747 917 q 771 497 771 670 q 654 26 771 186 q 314 -135 537 -135 q 80 -38 163 -135 q -3 233 -3 59 q 72 358 -3 358 q 124 333 110 358 q 139 248 139 307 q 138 227 139 239 q 138 211 138 214 q 325 -1 138 -1 q 550 121 471 -1 q 628 475 628 243 q 568 940 628 701 q 422 960 488 960 q 300 943 370 960 q 211 926 230 926 q 146 999 146 926 q 225 1065 146 1038 q 450 1093 310 1093 q 804 1047 637 1093 q 879 978 879 1027 z "},"K":{"ha":1135,"x_min":78,"x_max":1126,"o":"m 1126 -109 q 1106 -156 1126 -136 q 1057 -175 1086 -175 q 1002 -151 1023 -175 q 927 -39 981 -126 q 823 110 870 52 q 428 441 633 345 q 300 359 348 387 q 242 -58 276 65 q 135 -196 203 -196 q 94 -178 110 -196 q 78 -135 78 -161 q 87 -80 78 -115 q 106 -16 104 -24 q 164 553 164 243 q 150 865 164 708 q 135 1021 135 1022 q 204 1097 135 1097 q 292 959 275 1097 q 304 518 299 897 q 819 971 625 733 q 892 1059 890 1057 q 958 1093 925 1093 q 1015 1036 1015 1093 q 555 530 1015 895 q 879 268 736 425 q 1068 22 998 138 q 1126 -109 1126 -73 z "},"L":{"ha":1008,"x_min":-4,"x_max":1002,"o":"m 1002 195 q 888 -83 1002 7 l 888 -86 q 576 -150 785 -150 q 93 -113 270 -150 q 19 -86 39 -101 q -4 -35 -4 -68 q 68 18 -4 18 q 157 8 102 18 q 136 387 136 231 q 171 932 136 646 l 138 929 l 132 929 q 69 990 69 929 q 109 1054 69 1036 q 228 1071 144 1071 q 439 1038 362 1071 q 510 957 510 1006 q 491 909 510 930 q 447 889 471 889 q 389 909 431 889 q 313 933 345 930 q 271 389 271 656 q 297 -8 271 270 q 550 -25 456 -25 q 818 35 719 -25 q 861 175 846 71 q 880 261 871 243 q 933 290 894 290 q 1002 195 1002 290 z "},"M":{"ha":1480,"x_min":136,"x_max":1346,"o":"m 1346 345 q 1322 -82 1346 83 q 1247 -179 1308 -179 q 1179 -104 1179 -179 q 1187 -29 1179 -101 q 1203 142 1197 56 q 1211 412 1211 271 q 1171 933 1211 652 q 882 427 1006 771 q 831 283 857 355 q 764 231 807 231 q 702 272 722 231 q 663 393 694 287 q 349 922 579 673 q 273 256 273 678 q 278 105 273 195 q 283 -14 283 16 q 215 -117 283 -117 q 146 -52 161 -117 q 136 165 136 -4 q 203 922 136 624 q 250 1065 226 1024 q 317 1108 275 1108 q 418 1047 361 1108 q 602 828 536 920 q 772 503 705 682 q 1031 982 895 800 q 1222 1143 1151 1143 q 1267 1118 1252 1143 q 1295 1036 1280 1097 q 1346 345 1346 819 z "},"N":{"ha":1215,"x_min":89,"x_max":1135,"o":"m 1135 1019 q 1116 880 1135 992 q 1082 637 1093 743 q 1054 172 1054 354 q 1059 47 1054 122 q 1064 -52 1064 -27 q 990 -143 1064 -143 q 890 -95 943 -143 q 774 46 846 -54 q 319 827 522 393 q 236 125 249 572 q 228 -82 231 -68 q 164 -147 218 -147 q 95 -76 111 -147 q 89 37 89 -47 q 180 856 89 402 q 232 1032 206 981 q 313 1092 262 1092 q 366 1054 345 1092 q 414 946 367 1053 q 918 94 645 424 l 918 144 q 982 935 918 568 q 1015 1059 997 1022 q 1069 1099 1036 1099 q 1135 1019 1135 1099 z "},"O":{"ha":1239,"x_min":56,"x_max":1182,"o":"m 1182 435 q 1026 -13 1182 148 q 599 -174 871 -174 q 205 -8 358 -174 q 56 427 56 154 q 187 892 56 714 q 602 1083 330 1083 q 1028 913 874 1083 q 1182 435 1182 743 m 1039 431 q 926 813 1039 681 q 604 946 813 946 q 303 817 406 946 q 200 439 200 687 q 315 91 200 221 q 612 -40 429 -40 q 922 83 808 -40 q 1039 431 1039 210 z "},"P":{"ha":974,"x_min":-37,"x_max":940,"o":"m 940 747 q 841 451 940 564 q 586 339 743 339 q 426 373 491 339 q 366 447 366 406 l 366 450 q 382 499 366 479 q 424 519 399 519 q 489 496 435 519 q 587 473 543 473 q 740 547 680 473 q 800 736 800 621 q 709 926 800 854 q 468 999 617 999 q 345 989 425 999 q 357 689 357 794 q 347 282 357 461 q 296 -90 336 69 q 235 -147 281 -147 q 163 -50 163 -147 q 203 260 163 -61 q 216 547 216 370 q 205 949 216 784 q 100 869 158 924 q 32 827 57 827 q -17 847 4 827 q -37 895 -37 867 q 20 979 -37 924 q 450 1135 182 1135 q 808 1030 675 1135 q 940 747 940 925 z "},"Q":{"ha":1214,"x_min":45,"x_max":1350,"o":"m 1350 -87 q 1061 -236 1350 -215 l 1060 -235 l 1055 -235 q 850 -197 967 -235 q 618 -110 790 -178 q 501 -86 559 -86 q 316 -103 406 -86 q 231 -119 227 -119 q 165 -57 165 -119 q 224 12 165 -10 q 397 47 252 24 q 659 114 542 71 q 987 557 987 236 q 896 814 987 705 q 621 942 788 942 q 298 826 412 942 q 183 497 183 710 q 273 278 183 341 q 330 254 297 261 q 383 245 357 250 q 452 179 452 232 q 351 109 452 109 q 232 138 294 109 q 127 215 170 167 q 45 481 45 311 q 201 916 45 756 q 621 1076 358 1076 q 936 978 810 1076 q 1129 549 1129 826 q 711 -4 1129 149 q 1053 -102 937 -102 q 1213 -71 1152 -102 l 1213 -57 q 1284 -4 1255 -4 q 1307 -11 1295 -4 q 1350 -87 1350 -37 z "},"R":{"ha":1017,"x_min":-146,"x_max":1221,"o":"m 1221 -24 q 1166 -122 1221 -75 l 1166 -121 q 1025 -165 1115 -165 q 851 -125 908 -165 q 809 -83 834 -113 q 762 -31 768 -37 q 467 236 547 197 q 397 263 431 249 q 363 314 363 277 q 471 386 363 378 q 659 479 587 395 q 732 685 732 563 q 380 961 732 961 l 370 961 q 282 191 282 603 q 286 41 282 119 q 290 -45 290 -38 q 225 -139 290 -139 q 156 -75 172 -139 q 143 136 143 -23 q 228 947 143 626 q -49 905 -22 905 q -146 975 -146 905 q -110 1035 -146 1019 q -56 1045 -89 1044 q 0 1047 -28 1046 q 175 1074 21 1049 q 372 1093 290 1093 q 876 693 876 1093 q 806 459 876 566 q 611 290 736 351 q 804 116 709 216 q 920 -4 917 -2 q 1034 -35 954 -35 q 1082 -24 1072 -35 q 1125 22 1103 -1 q 1168 43 1147 43 q 1205 24 1190 43 q 1221 -24 1221 5 z "},"S":{"ha":867,"x_min":54,"x_max":848,"o":"m 848 997 q 841 933 848 977 q 833 867 833 889 l 833 846 q 824 747 833 772 q 766 713 810 713 q 701 776 718 713 q 690 879 692 806 q 496 945 597 945 q 281 861 366 945 q 197 646 197 777 q 251 484 197 534 q 414 406 288 449 q 568 347 527 367 q 676 269 639 314 q 732 93 732 203 q 646 -87 732 -21 q 410 -154 559 -154 q 229 -98 297 -154 l 228 -236 q 161 -304 227 -304 q 93 -214 93 -304 l 93 -115 q 104 142 93 81 q 172 225 120 225 q 228 192 214 225 q 242 134 236 172 q 253 69 249 85 q 390 -20 275 -20 q 590 100 590 -20 q 547 195 590 159 q 422 258 512 226 l 300 302 q 111 423 165 352 q 54 633 54 497 q 178 955 54 831 q 498 1079 302 1079 q 711 1017 611 1079 q 783 1088 730 1088 q 848 997 848 1088 z "},"T":{"ha":1017,"x_min":-41,"x_max":1069,"o":"m 1069 880 q 1049 832 1069 854 q 1006 811 1029 811 q 966 823 989 811 q 928 840 934 838 q 585 884 839 869 q 593 424 593 571 q 579 -64 593 138 q 559 -155 574 -129 q 503 -184 542 -184 q 437 -97 437 -184 q 448 85 437 -94 q 458 439 458 264 q 452 885 458 535 q 98 825 202 882 q 16 689 86 689 q -41 774 -41 689 q 45 951 -41 910 q 494 1021 191 1021 q 1069 880 1069 1021 z "},"U":{"ha":1192,"x_min":106,"x_max":1157,"o":"m 1157 1010 q 1100 950 1157 950 q 1051 962 1086 950 q 1076 599 1076 756 q 931 6 1076 210 q 514 -197 785 -197 q 211 -83 317 -197 q 106 248 106 31 q 310 935 106 611 l 275 930 q 269 930 273 930 q 262 929 264 929 q 207 985 207 929 q 429 1088 207 1088 q 574 1047 512 1088 q 631 968 631 1010 q 611 922 631 943 q 567 901 591 901 q 520 920 549 901 q 465 949 485 943 q 240 249 240 616 q 507 -64 240 -64 q 942 582 942 -64 q 914 960 942 806 q 856 949 886 949 q 814 969 832 949 q 796 1018 796 989 q 852 1082 796 1057 q 1002 1109 910 1109 q 1115 1081 1072 1109 q 1157 1010 1157 1053 z "},"V":{"ha":1007,"x_min":-87,"x_max":1107,"o":"m 1107 994 q 1089 946 1107 966 q 1047 926 1072 926 q 1004 934 1034 926 q 956 942 974 942 l 951 942 q 635 74 815 433 q 538 -104 563 -69 q 453 -165 497 -165 q 374 -123 397 -165 q 339 -3 364 -104 q 179 591 240 395 q 35 933 103 833 q -20 929 -7 929 l -24 929 q -69 947 -50 929 q -87 989 -87 964 q -38 1044 -87 1022 q 98 1065 12 1065 q 166 1060 123 1065 q 228 1055 208 1055 q 274 1057 245 1055 q 314 1059 302 1059 q 408 990 408 1059 q 306 921 408 921 q 193 929 272 921 q 469 22 317 669 q 807 935 695 459 q 730 930 749 930 q 652 989 652 930 q 760 1071 652 1055 q 926 1076 795 1076 q 1107 994 1107 1076 z "},"W":{"ha":1324,"x_min":-56,"x_max":1393,"o":"m 1393 1054 q 1374 1009 1393 1029 q 1332 989 1355 989 q 1306 993 1320 989 q 1284 1000 1293 997 q 1268 1007 1284 1000 q 1059 -113 1224 240 q 956 -204 1015 -204 q 705 458 787 -204 q 528 7 597 138 q 372 -140 449 -140 q 273 -77 319 -140 q 178 123 229 -16 q 75 958 75 401 l 75 1007 q 39 1001 62 1006 q 12 997 20 997 q -56 1067 -56 997 q 161 1149 -56 1149 q 323 1123 262 1149 q 385 1060 385 1098 q 319 987 385 987 q 270 997 303 987 q 211 1010 233 1008 l 208 840 q 376 17 208 335 q 614 596 481 161 q 661 787 637 673 q 692 906 681 880 q 746 947 711 947 q 810 901 795 947 q 821 762 821 867 q 820 722 821 745 q 819 693 819 699 q 954 -26 819 281 q 1135 1021 1097 337 q 1100 1015 1124 1020 q 1068 1010 1080 1010 q 1002 1079 1002 1010 q 1183 1158 1002 1158 q 1337 1126 1276 1158 q 1393 1054 1393 1095 z "},"X":{"ha":1023,"x_min":-26,"x_max":1017,"o":"m 1017 1071 q 896 760 1017 935 q 650 525 802 623 q 903 115 812 303 q 978 -114 978 -41 q 908 -186 978 -186 q 857 -158 873 -186 q 825 -74 848 -143 q 517 471 743 182 q 193 82 336 338 q 134 -75 145 -3 q 113 -138 125 -121 q 62 -157 97 -157 q -4 -82 -4 -157 q 170 294 -4 43 q 431 575 284 461 q 71 932 264 760 q 0 998 14 983 q -26 1050 -26 1027 q -8 1090 -26 1074 q 36 1107 9 1107 q 220 989 85 1107 q 570 628 365 861 q 867 1015 810 798 q 892 1112 892 1111 q 947 1147 907 1147 q 997 1129 978 1147 q 1017 1083 1017 1111 l 1017 1071 z "},"Y":{"ha":943,"x_min":-14,"x_max":1007,"o":"m 1007 1039 q 909 842 1007 988 q 489 386 726 566 l 490 385 l 490 300 q 491 156 490 241 q 492 47 492 72 q 479 -134 492 -88 q 412 -192 463 -192 q 350 -86 350 -192 q 353 9 350 -81 q 355 184 355 100 l 355 358 q 123 676 248 458 q -14 1038 -14 919 q 54 1111 -14 1111 q 110 1082 96 1111 q 134 1003 119 1061 q 164 901 150 938 q 421 490 252 669 q 829 985 656 682 q 882 1077 855 1031 q 935 1111 905 1111 q 986 1089 964 1111 q 1007 1039 1007 1068 z "},"Z":{"ha":1267,"x_min":7,"x_max":1304,"o":"m 1304 221 q 1204 83 1304 169 q 898 -93 1072 -31 q 541 -155 724 -155 q 155 -65 309 -155 q 64 43 64 -12 q 123 131 64 77 q 281 262 202 197 q 865 851 715 627 q 463 924 728 924 q 201 899 331 924 q 71 875 71 875 q 7 943 7 875 q 93 1011 7 987 q 478 1065 288 1065 q 878 1006 726 1065 q 1018 872 1018 951 q 825 577 1018 784 q 236 47 618 355 q 541 -22 359 -22 q 854 31 705 -22 q 1099 174 1001 83 q 1178 253 1138 213 q 1236 286 1212 286 q 1283 266 1262 286 q 1304 221 1304 245 z "},"[":{"ha":625,"x_min":125,"x_max":583,"o":"m 583 945 q 452 886 583 886 l 300 886 q 250 273 250 592 q 279 -45 250 43 q 393 -58 331 -58 q 445 -56 414 -58 q 485 -54 475 -54 q 564 -117 564 -54 q 522 -171 564 -158 q 446 -178 500 -178 q 170 -125 201 -178 q 141 1 155 -100 q 125 297 125 128 q 155 789 125 574 q 197 975 179 954 q 431 1008 227 1008 q 526 1003 503 1008 q 583 945 583 990 z "},"\\":{"ha":555,"x_min":24,"x_max":530,"o":"m 530 -3 q 467 -77 530 -77 q 411 -35 429 -77 q 355 170 410 -31 q 252 472 328 271 q 90 859 189 637 q 24 1032 24 1006 q 78 1089 24 1089 q 152 1033 119 1089 q 228 867 163 1015 q 459 285 377 527 q 530 -3 530 73 z "},"]":{"ha":597,"x_min":49,"x_max":492,"o":"m 492 671 q 424 -87 492 192 q 328 -179 401 -179 q 125 -110 259 -179 q 49 -43 49 -70 q 96 20 49 20 q 174 -6 114 20 q 300 -46 245 -35 q 367 604 367 296 q 350 892 367 742 q 170 878 193 878 q 78 935 78 878 q 98 977 78 964 q 161 990 116 987 q 387 1007 400 1007 q 478 935 459 1007 q 492 689 492 884 l 492 671 z "},"^":{"ha":833,"x_min":98,"x_max":736,"o":"m 736 418 q 720 391 736 404 q 688 378 705 378 q 606 444 670 378 q 428 608 508 543 q 235 444 341 549 q 134 370 160 370 q 109 380 120 370 q 98 401 98 390 q 235 576 98 440 q 433 725 383 725 q 648 546 481 725 q 736 418 736 452 z "},"_":{"ha":694,"x_min":-60,"x_max":733,"o":"m 733 -212 q 648 -269 733 -257 q 376 -277 590 -277 q -21 -255 69 -277 q -60 -212 -60 -245 q -23 -168 -60 -178 q 41 -163 -5 -163 q 197 -168 71 -163 q 421 -172 323 -172 q 572 -168 491 -172 q 667 -164 654 -164 q 733 -212 733 -164 z "},"`":{"ha":694,"x_min":142,"x_max":468,"o":"m 468 1019 q 432 982 468 982 q 382 1004 416 982 l 193 1128 q 142 1189 142 1162 q 157 1221 142 1206 q 192 1236 173 1236 q 250 1210 216 1236 l 431 1071 q 468 1019 468 1042 z "},"a":{"ha":764,"x_min":60,"x_max":669,"o":"m 669 411 q 615 22 669 225 q 534 -79 588 -79 q 479 -17 479 -79 q 481 4 479 -3 q 338 -33 412 -33 q 133 41 207 -33 q 60 248 60 115 q 139 461 60 382 q 350 541 218 541 q 543 464 465 541 q 345 732 530 732 q 256 707 303 732 q 195 682 209 682 q 153 701 172 682 q 135 745 135 720 q 194 820 135 785 q 345 857 257 857 q 669 411 669 857 m 532 252 q 370 424 532 424 q 192 253 192 424 q 368 81 192 81 q 488 126 445 81 q 532 252 532 171 z "},"b":{"ha":846,"x_min":68,"x_max":802,"o":"m 802 433 q 696 105 802 224 q 407 -14 590 -14 q 228 52 302 -14 q 218 -30 227 -6 q 158 -72 203 -72 q 94 8 94 -72 q 98 80 94 7 q 104 259 102 165 q 107 550 107 395 q 93 893 107 780 q 77 988 88 935 q 68 1043 68 1032 q 87 1081 68 1064 q 132 1097 107 1097 q 208 1014 188 1097 q 233 749 222 956 q 464 828 342 828 q 711 724 620 828 q 802 433 802 619 m 667 429 q 607 635 667 559 q 447 710 547 710 q 236 600 303 710 l 236 496 q 235 337 236 422 q 235 241 235 252 l 235 240 q 416 113 290 113 q 596 199 526 113 q 667 429 667 286 z "},"c":{"ha":836,"x_min":43,"x_max":803,"o":"m 803 277 q 660 96 803 206 q 395 18 559 18 q 138 125 232 18 q 43 425 43 235 q 153 809 43 671 q 454 946 262 946 q 688 882 597 946 q 774 739 774 823 q 710 671 774 671 q 667 692 680 671 q 629 766 654 722 q 454 821 581 821 q 250 721 322 821 q 178 436 178 621 q 411 143 178 143 q 642 239 546 143 q 684 300 642 239 q 739 336 708 336 q 783 318 764 336 q 803 277 803 299 z "},"d":{"ha":896,"x_min":40,"x_max":804,"o":"m 804 1026 q 796 924 804 1030 q 781 663 787 802 q 774 239 774 464 q 774 144 774 193 q 775 93 775 96 q 711 -8 775 -8 q 642 106 642 -8 q 643 147 642 132 q 346 21 515 21 q 122 112 205 21 q 40 363 40 203 q 160 713 40 580 q 473 847 279 847 q 660 806 564 847 q 673 1031 665 994 q 747 1100 688 1100 q 804 1026 804 1100 m 653 673 q 475 729 564 729 q 256 634 336 729 q 176 375 176 538 q 230 201 176 263 q 379 139 284 139 q 561 218 498 139 q 595 272 578 245 q 644 306 615 300 q 653 673 644 496 z "},"e":{"ha":777,"x_min":43,"x_max":746,"o":"m 746 579 q 697 475 746 509 q 559 436 675 460 q 297 404 406 404 q 178 411 248 404 q 372 155 178 155 q 469 186 426 155 q 547 258 491 201 q 590 279 568 279 q 639 258 618 279 q 660 205 660 237 q 640 158 660 180 q 367 31 524 31 q 43 406 43 31 q 146 739 43 599 q 436 899 263 899 q 659 808 571 899 q 746 579 746 718 m 611 571 q 562 720 607 665 q 449 775 517 775 q 294 712 361 775 q 191 532 224 648 q 293 526 239 526 q 611 571 425 526 z "},"f":{"ha":681,"x_min":4,"x_max":750,"o":"m 750 893 q 732 850 750 869 q 690 831 713 831 q 616 862 685 831 q 475 893 548 893 q 314 799 360 893 q 288 665 292 754 q 282 475 285 570 q 526 445 467 460 q 604 378 604 425 q 590 334 604 351 q 558 317 576 317 q 465 331 547 317 q 281 354 368 347 q 260 -22 271 49 q 180 -144 241 -144 q 115 -69 115 -144 q 130 70 115 -69 q 147 361 144 214 q 38 372 64 362 q 4 427 4 385 q 66 485 4 485 l 69 485 l 149 482 q 153 662 151 572 q 171 790 157 747 q 468 1018 241 1018 q 675 978 593 1018 q 750 893 750 941 z "},"g":{"ha":732,"x_min":-21,"x_max":742,"o":"m 742 901 q 682 848 742 848 q 648 851 674 848 q 591 856 614 854 q 673 642 673 766 q 588 443 673 521 q 367 366 503 366 q 269 372 336 366 q 178 269 212 329 q 353 285 310 285 q 631 93 631 285 q 526 -89 631 -23 q 233 -155 421 -155 q 45 -110 115 -155 q -21 -3 -21 -67 q -1 37 -21 20 q 45 54 18 54 q 80 39 62 54 q 114 3 97 20 q 240 -31 147 -31 q 426 1 359 -31 q 490 83 490 31 q 313 160 490 160 q 202 152 271 160 q 106 144 133 144 q 40 191 40 144 q 167 410 40 255 q 62 623 62 484 q 155 843 62 751 q 380 935 247 935 q 446 928 409 935 q 590 961 468 961 q 742 901 742 961 m 545 654 q 499 775 545 730 q 380 821 454 821 q 248 766 299 821 q 196 624 196 711 q 366 482 196 482 q 498 527 451 482 q 545 654 545 572 z "},"h":{"ha":875,"x_min":106,"x_max":779,"o":"m 779 387 q 742 77 779 193 q 653 -35 707 -35 q 602 -16 623 -35 q 581 26 581 3 q 612 145 581 26 q 644 387 644 264 q 602 654 644 571 q 461 741 559 741 q 356 715 410 741 q 273 654 302 690 q 237 517 237 609 l 237 473 q 251 138 237 300 q 264 -14 264 -24 q 201 -81 264 -81 q 151 -58 165 -81 q 129 18 138 -39 q 106 439 106 176 q 157 965 106 669 q 178 1049 168 1029 q 229 1078 194 1078 q 273 1059 255 1078 q 290 1010 290 1040 q 256 782 290 1011 q 473 865 345 865 q 779 387 779 865 z "},"i":{"ha":386,"x_min":81,"x_max":289,"o":"m 289 1028 q 195 932 289 932 q 131 958 157 932 q 104 1022 104 985 q 133 1091 104 1063 q 203 1120 161 1120 q 265 1095 241 1120 q 289 1028 289 1069 m 260 770 q 231 165 260 361 q 205 60 219 87 q 146 24 186 24 q 100 42 119 24 q 81 85 81 60 q 92 132 81 81 q 113 261 104 189 q 123 492 123 364 q 122 609 123 547 q 121 676 121 671 q 136 804 121 768 q 197 843 153 843 q 260 770 260 843 z "},"j":{"ha":403,"x_min":-151,"x_max":289,"o":"m 252 1044 q 222 974 252 1002 q 150 945 193 945 q 81 973 113 945 q 49 1034 49 1001 q 80 1107 49 1078 q 155 1137 111 1137 q 252 1044 252 1137 m 289 449 q 211 7 289 166 q 8 -146 136 -146 q -104 -106 -57 -146 q -151 -18 -151 -66 q -133 30 -151 10 q -86 49 -114 49 q -35 14 -54 49 q 3 -21 -16 -21 q 104 95 59 -21 q 153 414 153 222 q 139 608 153 497 q 125 743 125 718 q 184 814 125 814 q 267 727 244 814 q 289 449 289 647 z "},"k":{"ha":791,"x_min":103,"x_max":764,"o":"m 764 825 q 675 737 764 783 q 418 615 547 676 q 667 326 578 452 q 746 160 746 212 q 727 110 746 131 q 682 89 707 89 q 635 121 655 89 q 490 345 585 201 q 311 541 422 439 q 271 577 272 576 q 250 636 250 602 q 293 690 250 667 q 412 743 353 716 q 597 844 470 771 q 699 888 673 888 q 764 825 764 888 m 289 962 q 274 919 289 964 q 247 804 257 867 q 232 604 232 713 q 240 418 232 543 q 249 229 249 293 q 233 101 249 139 q 170 60 215 60 q 121 87 132 60 q 114 147 114 104 q 115 232 114 181 q 115 300 115 283 q 109 484 115 370 q 103 644 103 599 q 136 927 103 825 q 221 1025 168 1025 q 268 1006 248 1025 q 289 962 289 987 z "},"l":{"ha":372,"x_min":117,"x_max":269,"o":"m 269 8 q 263 -55 269 -38 q 212 -85 252 -85 q 136 20 148 -85 q 117 503 117 196 q 126 924 117 845 q 195 1010 137 1010 q 262 928 262 1010 q 255 766 262 907 q 248 505 248 625 q 258 235 248 401 q 269 8 269 69 z "},"m":{"ha":1132,"x_min":96,"x_max":1042,"o":"m 1042 472 q 918 -47 1042 -47 q 871 12 871 -47 q 894 167 871 13 q 917 475 917 321 q 796 730 917 730 q 657 602 690 730 q 632 212 632 503 q 639 114 632 168 q 646 50 646 60 q 582 -17 646 -17 q 505 228 505 -17 q 513 443 505 331 q 521 564 521 555 q 415 664 521 664 q 271 575 316 664 q 228 302 228 489 q 235 79 228 182 q 241 -8 241 -24 q 223 -51 241 -34 q 175 -68 204 -68 q 100 47 115 -68 q 96 220 96 81 q 143 775 96 511 q 174 890 159 862 q 233 925 193 925 q 297 857 297 925 q 267 704 297 857 q 433 786 325 786 q 570 714 520 786 q 812 856 656 856 q 1042 472 1042 856 z "},"n":{"ha":829,"x_min":98,"x_max":747,"o":"m 747 461 q 694 140 747 300 q 614 41 662 41 q 570 57 588 41 q 551 96 551 73 q 584 219 551 102 q 616 453 616 337 q 452 717 616 717 q 298 647 357 717 q 236 457 236 575 q 255 274 236 391 q 273 106 273 156 q 207 -11 273 -11 q 160 4 173 -11 q 143 52 150 16 q 126 294 142 94 q 98 693 98 575 q 178 899 98 899 q 222 883 203 899 q 240 846 240 867 q 232 789 240 831 q 224 720 224 748 l 224 704 q 468 840 324 840 q 674 742 600 840 q 747 461 747 644 z "},"o":{"ha":852,"x_min":40,"x_max":812,"o":"m 812 493 q 696 175 812 294 q 385 57 579 57 q 132 167 223 57 q 40 473 40 277 q 151 793 40 680 q 452 905 259 905 q 713 792 613 905 q 812 493 812 679 m 677 492 q 611 705 677 628 q 431 782 545 782 q 175 475 175 782 q 231 257 175 333 q 390 180 286 180 q 601 262 524 180 q 677 492 677 345 z "},"p":{"ha":823,"x_min":57,"x_max":782,"o":"m 782 437 q 679 160 782 264 q 401 57 575 57 q 212 100 304 57 q 186 -96 197 -59 q 125 -155 170 -155 q 77 -138 96 -155 q 57 -94 57 -120 q 68 -8 57 -98 q 89 220 81 98 q 100 602 100 397 q 98 695 100 642 q 97 758 97 747 q 160 848 97 848 q 228 786 226 848 l 229 745 q 440 823 311 823 q 687 720 594 823 q 782 437 782 615 m 647 437 q 589 630 647 562 q 429 699 532 699 q 232 597 269 699 l 232 530 q 224 221 232 373 q 401 179 311 179 q 583 246 519 179 q 647 437 647 313 z "},"q":{"ha":889,"x_min":47,"x_max":811,"o":"m 811 553 q 796 481 811 530 q 771 392 777 418 q 739 28 739 237 q 756 -130 739 -67 q 774 -180 774 -192 q 753 -224 774 -205 q 705 -244 732 -244 q 607 28 607 -244 q 611 153 607 96 q 379 41 530 41 q 135 129 222 41 q 47 376 47 216 q 164 730 47 595 q 492 879 292 879 q 686 838 604 879 q 762 750 762 798 q 746 711 762 727 q 708 694 730 694 q 629 724 699 694 q 497 754 559 754 q 277 654 364 754 q 187 387 187 551 q 397 165 187 165 q 608 315 543 165 q 660 475 641 390 q 681 568 680 565 q 747 625 703 625 q 811 553 811 625 z "},"r":{"ha":621,"x_min":56,"x_max":599,"o":"m 599 676 q 583 633 599 650 q 546 615 568 615 q 498 639 530 615 q 440 663 466 663 q 336 606 376 663 q 296 453 296 549 l 296 364 q 264 128 296 216 q 189 46 235 46 q 127 107 127 46 q 146 197 127 119 q 165 343 165 275 q 111 647 165 533 q 74 715 110 650 q 56 768 56 749 q 77 809 56 790 q 122 828 98 828 q 241 652 194 828 q 447 787 312 787 q 557 756 515 787 q 599 676 599 724 z "},"s":{"ha":632,"x_min":22,"x_max":602,"o":"m 602 734 q 533 667 602 667 q 496 684 509 667 q 476 715 486 699 q 364 770 434 770 q 244 633 244 770 q 266 552 244 586 q 332 486 284 523 q 465 373 439 404 q 521 227 521 309 q 450 50 521 118 q 267 -18 380 -18 q 90 38 159 -18 q 22 175 22 92 q 94 258 22 258 q 157 165 155 258 q 267 107 205 107 q 350 138 317 107 q 382 215 382 169 q 342 294 382 257 q 243 374 342 296 q 106 628 106 482 q 179 820 106 747 q 370 893 252 893 q 536 842 467 893 q 602 734 602 794 z "},"t":{"ha":653,"x_min":-21,"x_max":643,"o":"m 643 632 q 628 592 643 608 q 593 575 613 575 q 515 602 583 575 q 383 628 448 628 q 340 625 363 628 q 315 422 315 515 q 355 240 315 304 q 467 176 395 176 q 524 190 488 176 q 575 204 559 204 q 629 140 629 204 q 585 73 629 99 q 463 47 540 47 q 175 431 175 47 q 195 608 175 511 q 113 593 176 606 q 52 585 71 585 q -21 640 -21 585 q 229 739 -21 716 q 355 903 281 903 q 395 886 378 903 q 411 846 411 869 q 401 801 411 828 q 380 747 391 774 q 643 632 643 739 z "},"u":{"ha":896,"x_min":106,"x_max":812,"o":"m 812 66 q 793 12 812 34 q 745 -11 773 -11 q 654 154 691 -11 q 376 -3 540 -3 q 106 429 106 -3 q 135 815 106 651 q 221 917 153 917 q 264 899 245 917 q 282 856 282 880 q 262 688 282 834 q 243 415 243 541 q 403 125 243 125 q 567 205 507 125 q 628 432 628 286 l 628 472 q 640 764 628 699 q 715 856 656 856 q 772 777 772 856 q 767 673 772 762 q 761 511 761 585 q 787 192 761 338 q 812 66 812 46 z "},"v":{"ha":742,"x_min":-18,"x_max":693,"o":"m 693 851 q 664 677 693 795 q 616 497 632 549 q 490 189 568 347 q 343 14 404 14 q 283 90 304 14 q 228 300 256 195 q 24 802 132 604 q -4 849 9 825 q -18 890 -18 873 q 43 951 -18 951 q 194 773 111 951 q 378 239 273 603 q 551 808 491 461 q 572 913 568 900 q 625 949 586 949 q 693 851 693 949 z "},"w":{"ha":1099,"x_min":56,"x_max":1044,"o":"m 1044 440 q 969 113 1044 229 q 768 1 897 1 q 543 163 611 1 q 366 39 463 39 q 149 180 236 39 q 56 575 56 330 q 155 913 56 913 q 202 893 182 913 q 222 846 222 873 q 208 758 222 850 q 193 564 193 665 q 248 291 193 397 q 368 193 298 193 q 453 249 418 193 q 489 395 489 305 q 480 526 489 443 q 471 644 471 610 q 546 736 471 736 q 623 637 623 736 q 622 586 623 623 q 621 529 621 549 q 629 286 621 336 q 760 132 656 132 q 868 202 827 132 q 908 400 908 273 q 878 689 908 545 q 847 840 847 834 q 904 895 847 895 q 1006 779 968 895 q 1044 440 1044 658 z "},"x":{"ha":812,"x_min":4,"x_max":810,"o":"m 810 142 q 791 92 810 113 q 749 71 772 71 q 397 323 705 71 q 205 127 301 226 q 103 57 132 57 q 52 78 74 57 q 31 127 31 100 q 109 232 31 162 q 298 416 240 351 q 43 760 105 608 q 4 817 4 782 q 24 868 4 846 q 72 889 45 889 q 136 859 111 889 q 183 775 154 839 q 383 517 238 658 q 550 754 492 639 q 591 848 570 801 q 650 886 612 886 q 700 867 680 886 q 720 818 720 848 q 484 424 720 699 q 719 245 546 370 q 810 142 810 180 z "},"y":{"ha":616,"x_min":20,"x_max":587,"o":"m 587 863 q 518 567 587 777 q 289 75 454 373 q 222 -59 256 8 q 153 -111 193 -111 q 110 -91 129 -111 q 90 -46 90 -71 q 150 101 90 -2 q 292 347 287 339 q 81 681 159 526 q 20 847 20 804 q 78 908 20 908 q 151 844 115 908 q 217 702 184 773 q 351 471 275 578 q 431 741 401 600 q 464 889 463 886 q 525 945 484 945 q 587 863 587 945 z "},"z":{"ha":717,"x_min":-3,"x_max":754,"o":"m 754 86 q 517 4 754 4 q 100 110 323 4 q 57 85 81 85 q 15 104 33 85 q -3 153 -3 124 q 97 339 -3 203 q 510 800 321 643 q 183 832 322 832 l 126 832 q 24 896 24 832 q 136 962 24 962 q 510 929 321 962 q 710 815 710 894 q 688 773 710 791 q 628 732 658 753 q 161 220 435 599 q 517 132 326 132 q 622 141 567 132 q 681 150 676 150 q 754 86 754 150 z "},"{":{"ha":667,"x_min":35,"x_max":623,"o":"m 623 -167 q 504 -239 623 -239 q 282 -159 370 -239 q 193 82 193 -80 q 194 125 193 96 q 195 168 195 153 q 127 372 195 299 q 94 390 119 382 q 35 452 35 410 q 68 505 35 492 q 143 517 105 511 q 240 615 224 531 q 248 713 248 652 l 248 753 q 267 918 248 859 q 498 1105 329 1105 q 587 1083 552 1105 q 619 1032 619 1062 q 557 975 619 975 q 527 980 549 975 q 492 985 506 985 q 379 872 402 985 q 368 736 370 829 q 363 593 366 626 q 327 497 355 532 q 231 431 298 462 q 323 197 323 343 q 320 125 323 168 q 317 69 317 83 q 368 -69 317 -20 q 511 -118 419 -118 q 548 -115 528 -118 q 572 -113 569 -113 q 623 -167 623 -113 z "},"|":{"ha":694,"x_min":271,"x_max":411,"o":"m 411 -49 q 410 -107 411 -68 q 410 -167 410 -147 l 410 -204 q 404 -296 410 -275 q 345 -349 392 -349 q 283 -267 283 -349 q 286 -212 283 -263 q 288 -113 288 -160 q 279 330 288 53 q 271 720 271 608 q 281 1086 271 787 q 342 1175 283 1175 q 395 1148 381 1175 q 406 1084 406 1129 q 400 948 406 1075 q 395 701 395 821 q 403 273 395 524 q 411 -49 411 23 z "},"}":{"ha":729,"x_min":20,"x_max":699,"o":"m 699 467 q 610 404 699 404 q 578 406 589 404 q 492 315 505 383 q 472 94 488 254 q 389 -153 453 -79 q 183 -229 323 -229 q 20 -150 20 -229 q 82 -89 20 -89 q 130 -101 94 -89 q 193 -114 166 -114 q 311 -52 273 -114 q 357 140 345 5 q 371 327 364 233 q 450 457 387 413 q 349 577 381 500 q 313 771 321 646 q 310 843 311 807 q 293 916 307 886 q 193 983 262 983 q 145 977 171 983 q 113 970 119 970 q 72 986 89 970 q 56 1023 56 1002 q 193 1104 56 1104 q 400 993 336 1104 q 433 863 431 939 q 435 745 435 804 q 453 644 439 684 q 524 546 477 576 q 583 525 549 529 q 636 521 610 523 q 699 467 699 514 z "},"~":{"ha":833,"x_min":21,"x_max":810,"o":"m 810 525 q 757 404 810 455 q 632 353 705 353 q 437 441 552 353 l 387 481 q 257 541 311 541 q 160 504 199 541 q 119 408 151 496 q 104 374 110 382 q 71 364 94 364 q 21 432 21 364 q 89 580 21 519 q 258 642 157 642 q 452 561 349 642 l 497 525 q 639 453 589 453 q 708 519 690 453 q 724 568 720 559 q 760 586 736 586 q 810 525 810 586 z "},"Ä":{"ha":1243,"x_min":-77,"x_max":1215,"o":"m 1215 -85 q 1152 -151 1215 -151 q 1053 -68 1107 -151 q 925 178 1014 -6 q 339 298 666 182 q -16 26 79 26 q -58 44 -40 26 q -77 87 -77 62 q -32 151 -77 115 q 58 222 14 186 q 204 354 135 283 q 87 449 87 400 q 106 497 87 477 q 150 517 124 517 q 212 498 171 517 q 297 460 283 465 q 604 983 570 819 q 624 1097 614 1040 q 688 1139 637 1139 q 743 1104 729 1139 q 757 1042 751 1084 q 768 971 763 991 q 1018 311 833 709 q 1078 315 1049 312 q 1105 317 1105 317 q 1181 249 1181 317 q 1103 179 1181 179 l 1083 179 q 1175 13 1109 125 q 1215 -85 1215 -58 m 861 313 q 672 814 752 549 q 429 408 574 595 q 861 313 640 331 m 907 1247 q 820 1173 907 1173 q 745 1234 745 1173 q 831 1321 745 1321 q 885 1299 862 1321 q 907 1247 907 1278 m 646 1229 q 546 1156 646 1156 q 481 1217 481 1156 q 506 1279 481 1253 q 570 1305 532 1305 q 646 1229 646 1305 z "},"Å":{"ha":1243,"x_min":-77,"x_max":1215,"o":"m 1215 -85 q 1152 -151 1215 -151 q 1053 -68 1107 -151 q 925 178 1014 -6 q 339 298 666 182 q -16 26 79 26 q -58 44 -40 26 q -77 87 -77 62 q -32 151 -77 115 q 58 222 14 186 q 204 354 135 283 q 87 449 87 400 q 106 497 87 477 q 150 517 124 517 q 212 498 171 517 q 297 460 283 465 q 614 1044 606 865 q 530 1186 530 1085 q 574 1294 530 1253 q 690 1336 618 1336 q 807 1296 765 1336 q 850 1186 850 1256 q 755 1039 850 1082 q 1018 311 779 823 q 1078 315 1049 312 q 1105 317 1105 317 q 1181 249 1181 317 q 1103 179 1181 179 l 1083 179 q 1175 13 1109 125 q 1215 -85 1215 -58 m 779 1187 q 755 1250 779 1225 q 696 1275 731 1275 q 631 1249 656 1275 q 606 1181 606 1223 q 628 1117 606 1142 q 684 1092 650 1092 q 751 1119 723 1092 q 779 1187 779 1147 m 861 313 q 672 814 752 549 q 429 408 574 595 q 861 313 640 331 z "},"Ç":{"ha":1169,"x_min":72,"x_max":1108,"o":"m 1108 104 q 1070 18 1108 68 q 961 -77 1028 -36 q 635 -160 833 -153 q 637 -204 635 -189 q 731 -240 697 -208 q 765 -319 765 -271 q 709 -419 765 -378 q 562 -461 650 -461 q 471 -415 471 -461 q 513 -382 471 -382 q 536 -384 518 -382 q 567 -386 555 -386 q 665 -319 665 -386 q 613 -269 665 -273 q 555 -264 561 -265 q 538 -232 538 -258 q 557 -158 538 -195 q 199 15 326 -140 q 72 437 72 170 q 155 794 72 642 q 349 999 228 928 q 619 1071 469 1071 q 994 956 854 1071 q 1047 876 1047 912 q 1026 828 1047 849 q 978 807 1005 807 q 928 831 960 807 q 629 936 781 936 q 328 802 440 936 q 215 439 215 669 q 618 -24 215 -24 q 946 87 848 -24 q 991 146 968 117 q 1040 172 1013 172 q 1089 153 1069 172 q 1108 104 1108 134 z "},"É":{"ha":993,"x_min":26,"x_max":974,"o":"m 974 64 q 836 -46 974 6 q 521 -113 703 -96 q 197 -122 412 -122 q 94 -117 121 -122 q 26 -58 26 -104 q 45 -11 26 -31 q 90 8 64 8 l 153 8 q 186 704 186 173 q 183 951 186 726 q 137 951 161 951 q 113 950 113 950 q 41 1013 41 950 q 79 1070 41 1054 q 197 1084 113 1084 q 760 1021 549 1084 q 900 921 900 978 q 882 878 900 897 q 843 859 864 859 q 791 875 831 859 q 705 904 741 896 q 319 946 613 927 q 317 557 319 823 q 481 551 402 551 q 595 555 536 551 q 659 559 654 559 q 732 497 732 559 q 670 435 732 448 q 481 427 628 427 q 314 431 399 427 q 289 8 307 119 l 317 8 q 726 49 589 8 q 832 94 764 60 q 913 122 887 122 q 956 104 937 122 q 974 64 974 87 m 661 1382 q 569 1250 661 1343 q 451 1166 488 1166 q 425 1177 437 1166 q 414 1200 414 1187 q 460 1259 414 1215 q 560 1370 463 1263 q 625 1414 601 1414 q 661 1382 661 1414 z "},"Ñ":{"ha":1215,"x_min":89,"x_max":1135,"o":"m 1135 1019 q 1116 880 1135 992 q 1082 637 1093 743 q 1054 172 1054 354 q 1059 47 1054 122 q 1064 -52 1064 -27 q 990 -143 1064 -143 q 890 -95 943 -143 q 774 46 846 -54 q 319 827 522 393 q 236 125 249 572 q 228 -82 231 -68 q 164 -147 218 -147 q 95 -76 111 -147 q 89 37 89 -47 q 180 856 89 402 q 232 1032 206 981 q 313 1092 262 1092 q 366 1054 345 1092 q 414 946 367 1053 q 918 94 645 424 l 918 144 q 982 935 918 568 q 1015 1059 997 1022 q 1069 1099 1036 1099 q 1135 1019 1135 1099 m 909 1312 q 857 1208 909 1260 q 751 1157 804 1157 q 569 1286 692 1157 q 473 1181 515 1181 q 444 1218 444 1181 q 475 1287 444 1244 q 586 1369 532 1369 q 654 1324 610 1369 q 770 1242 709 1267 q 883 1345 838 1345 q 909 1312 909 1345 z "},"Ö":{"ha":1239,"x_min":56,"x_max":1182,"o":"m 1182 435 q 1026 -13 1182 148 q 599 -174 871 -174 q 205 -8 358 -174 q 56 427 56 154 q 187 892 56 714 q 602 1083 330 1083 q 1028 913 874 1083 q 1182 435 1182 743 m 1039 431 q 926 813 1039 681 q 604 946 813 946 q 303 817 406 946 q 200 439 200 687 q 315 91 200 221 q 612 -40 429 -40 q 922 83 808 -40 q 1039 431 1039 210 m 843 1247 q 755 1173 843 1173 q 680 1234 680 1173 q 766 1321 680 1321 q 820 1299 798 1321 q 843 1247 843 1278 m 582 1229 q 481 1156 582 1156 q 416 1217 416 1156 q 442 1279 416 1253 q 505 1305 467 1305 q 582 1229 582 1305 z "},"Ü":{"ha":1192,"x_min":106,"x_max":1157,"o":"m 1157 1010 q 1100 950 1157 950 q 1051 962 1086 950 q 1076 599 1076 756 q 931 6 1076 210 q 514 -197 785 -197 q 211 -83 317 -197 q 106 248 106 31 q 310 935 106 611 l 275 930 q 269 930 273 930 q 262 929 264 929 q 207 985 207 929 q 429 1088 207 1088 q 574 1047 512 1088 q 631 968 631 1010 q 611 922 631 943 q 567 901 591 901 q 520 920 549 901 q 465 949 485 943 q 240 249 240 616 q 507 -64 240 -64 q 942 582 942 -64 q 914 960 942 806 q 856 949 886 949 q 814 969 832 949 q 796 1018 796 989 q 852 1082 796 1057 q 1002 1109 910 1109 q 1115 1081 1072 1109 q 1157 1010 1157 1053 m 895 1247 q 807 1173 895 1173 q 732 1234 732 1173 q 818 1321 732 1321 q 872 1299 849 1321 q 895 1247 895 1278 m 633 1229 q 533 1156 633 1156 q 468 1217 468 1156 q 493 1279 468 1253 q 557 1305 519 1305 q 633 1229 633 1305 z "},"á":{"ha":764,"x_min":60,"x_max":669,"o":"m 669 411 q 615 22 669 225 q 534 -79 588 -79 q 479 -17 479 -79 q 481 4 479 -3 q 338 -33 412 -33 q 133 41 207 -33 q 60 248 60 115 q 139 461 60 382 q 350 541 218 541 q 543 464 465 541 q 345 732 530 732 q 256 707 303 732 q 195 682 209 682 q 153 701 172 682 q 135 745 135 720 q 194 820 135 785 q 345 857 257 857 q 669 411 669 857 m 532 252 q 370 424 532 424 q 192 253 192 424 q 368 81 192 81 q 488 126 445 81 q 532 252 532 171 m 546 1206 q 454 1074 546 1167 q 336 990 372 990 q 310 1001 321 990 q 298 1023 298 1011 q 345 1083 298 1038 q 445 1194 348 1087 q 509 1238 486 1238 q 546 1206 546 1238 z "},"à":{"ha":764,"x_min":60,"x_max":669,"o":"m 669 411 q 615 22 669 225 q 534 -79 588 -79 q 479 -17 479 -79 q 481 4 479 -3 q 338 -33 412 -33 q 133 41 207 -33 q 60 248 60 115 q 139 461 60 382 q 350 541 218 541 q 543 464 465 541 q 345 732 530 732 q 256 707 303 732 q 195 682 209 682 q 153 701 172 682 q 135 745 135 720 q 194 820 135 785 q 345 857 257 857 q 669 411 669 857 m 532 252 q 370 424 532 424 q 192 253 192 424 q 368 81 192 81 q 488 126 445 81 q 532 252 532 171 m 503 1019 q 467 982 503 982 q 416 1004 450 982 l 228 1128 q 176 1189 176 1162 q 192 1221 176 1206 q 227 1236 208 1236 q 285 1210 250 1236 l 465 1071 q 503 1019 503 1042 z "},"â":{"ha":764,"x_min":60,"x_max":669,"o":"m 669 411 q 615 22 669 225 q 534 -79 588 -79 q 479 -17 479 -79 q 481 4 479 -3 q 338 -33 412 -33 q 133 41 207 -33 q 60 248 60 115 q 139 461 60 382 q 350 541 218 541 q 543 464 465 541 q 345 732 530 732 q 256 707 303 732 q 195 682 209 682 q 153 701 172 682 q 135 745 135 720 q 194 820 135 785 q 345 857 257 857 q 669 411 669 857 m 532 252 q 370 424 532 424 q 192 253 192 424 q 368 81 192 81 q 488 126 445 81 q 532 252 532 171 m 607 1017 q 594 991 607 1003 q 564 979 581 979 q 498 1030 541 979 q 387 1150 433 1110 q 279 1037 355 1122 q 201 987 235 987 q 161 1013 161 987 q 260 1150 161 1047 q 395 1242 347 1242 q 475 1196 425 1242 q 572 1086 532 1143 q 607 1017 607 1035 z "},"ä":{"ha":764,"x_min":60,"x_max":669,"o":"m 669 411 q 615 22 669 225 q 534 -79 588 -79 q 479 -17 479 -79 q 481 4 479 -3 q 338 -33 412 -33 q 133 41 207 -33 q 60 248 60 115 q 139 461 60 382 q 350 541 218 541 q 543 464 465 541 q 345 732 530 732 q 256 707 303 732 q 195 682 209 682 q 153 701 172 682 q 135 745 135 720 q 194 820 135 785 q 345 857 257 857 q 669 411 669 857 m 532 252 q 370 424 532 424 q 192 253 192 424 q 368 81 192 81 q 488 126 445 81 q 532 252 532 171 m 606 1071 q 518 997 606 997 q 443 1057 443 997 q 529 1145 443 1145 q 583 1123 560 1145 q 606 1071 606 1101 m 345 1053 q 244 979 345 979 q 179 1040 179 979 q 204 1103 179 1077 q 268 1129 230 1129 q 345 1053 345 1129 z "},"ã":{"ha":764,"x_min":60,"x_max":669,"o":"m 669 411 q 615 22 669 225 q 534 -79 588 -79 q 479 -17 479 -79 q 481 4 479 -3 q 338 -33 412 -33 q 133 41 207 -33 q 60 248 60 115 q 139 461 60 382 q 350 541 218 541 q 543 464 465 541 q 345 732 530 732 q 256 707 303 732 q 195 682 209 682 q 153 701 172 682 q 135 745 135 720 q 194 820 135 785 q 345 857 257 857 q 669 411 669 857 m 532 252 q 370 424 532 424 q 192 253 192 424 q 368 81 192 81 q 488 126 445 81 q 532 252 532 171 m 612 1136 q 560 1032 612 1084 q 454 981 507 981 q 272 1109 395 981 q 176 1004 218 1004 q 147 1042 147 1004 q 178 1111 147 1067 q 289 1193 235 1193 q 357 1147 313 1193 q 473 1065 412 1091 q 586 1169 541 1169 q 612 1136 612 1169 z "},"å":{"ha":672,"x_min":60,"x_max":669,"o":"m 669 411 q 615 22 669 225 q 534 -79 588 -79 q 479 -17 479 -79 q 481 4 479 -3 q 338 -33 412 -33 q 133 41 207 -33 q 60 248 60 115 q 139 461 60 382 q 350 541 218 541 q 543 464 465 541 q 345 732 530 732 q 256 707 303 732 q 195 682 209 682 q 153 701 172 682 q 135 745 135 720 q 194 820 135 785 q 345 857 257 857 q 669 411 669 857 m 532 252 q 370 424 532 424 q 192 253 192 424 q 368 81 192 81 q 488 126 445 81 q 532 252 532 171 m 509 1122 q 464 1007 509 1053 q 349 962 418 962 q 234 1007 279 962 q 189 1122 189 1052 q 233 1231 189 1189 q 349 1272 277 1272 q 466 1232 423 1272 q 509 1122 509 1192 m 437 1122 q 413 1185 437 1160 q 354 1211 389 1211 q 289 1185 314 1211 q 264 1117 264 1159 q 286 1052 264 1078 q 342 1026 309 1026 q 410 1054 382 1026 q 437 1122 437 1082 z "},"ç":{"ha":917,"x_min":54,"x_max":889,"o":"m 889 285 q 772 140 889 225 q 507 53 669 65 q 504 25 504 33 q 505 7 504 12 q 646 -118 646 1 q 449 -240 646 -240 q 361 -195 361 -240 q 403 -160 361 -160 q 424 -162 405 -160 q 463 -164 444 -164 q 550 -117 550 -164 q 490 -60 550 -66 q 442 -54 446 -56 q 428 -21 428 -47 q 449 57 428 9 q 159 189 263 75 q 54 481 54 302 q 181 843 54 709 q 521 977 308 977 q 793 896 672 977 q 833 825 833 869 q 768 764 833 764 q 671 803 743 764 q 525 840 601 840 q 282 749 369 840 q 195 493 195 658 q 277 275 195 354 q 505 196 360 196 q 737 288 640 196 q 780 328 758 308 q 825 347 801 347 q 889 285 889 347 z "},"é":{"ha":777,"x_min":43,"x_max":746,"o":"m 746 579 q 697 475 746 509 q 559 436 675 460 q 297 404 406 404 q 178 411 248 404 q 372 155 178 155 q 469 186 426 155 q 547 258 491 201 q 590 279 568 279 q 639 258 618 279 q 660 205 660 237 q 640 158 660 180 q 367 31 524 31 q 43 406 43 31 q 146 739 43 599 q 436 899 263 899 q 659 808 571 899 q 746 579 746 718 m 611 571 q 562 720 607 665 q 449 775 517 775 q 294 712 361 775 q 191 532 224 648 q 293 526 239 526 q 611 571 425 526 m 613 1206 q 521 1074 613 1167 q 403 990 439 990 q 377 1001 389 990 q 366 1023 366 1011 q 412 1083 366 1038 q 512 1194 415 1087 q 576 1238 553 1238 q 613 1206 613 1238 z "},"è":{"ha":777,"x_min":43,"x_max":746,"o":"m 746 579 q 697 475 746 509 q 559 436 675 460 q 297 404 406 404 q 178 411 248 404 q 372 155 178 155 q 469 186 426 155 q 547 258 491 201 q 590 279 568 279 q 639 258 618 279 q 660 205 660 237 q 640 158 660 180 q 367 31 524 31 q 43 406 43 31 q 146 739 43 599 q 436 899 263 899 q 659 808 571 899 q 746 579 746 718 m 611 571 q 562 720 607 665 q 449 775 517 775 q 294 712 361 775 q 191 532 224 648 q 293 526 239 526 q 611 571 425 526 m 570 1019 q 534 982 570 982 q 484 1004 517 982 l 295 1128 q 243 1189 243 1162 q 259 1221 243 1206 q 294 1236 275 1236 q 352 1210 317 1236 l 532 1071 q 570 1019 570 1042 z "},"ê":{"ha":777,"x_min":43,"x_max":746,"o":"m 746 579 q 697 475 746 509 q 559 436 675 460 q 297 404 406 404 q 178 411 248 404 q 372 155 178 155 q 469 186 426 155 q 547 258 491 201 q 590 279 568 279 q 639 258 618 279 q 660 205 660 237 q 640 158 660 180 q 367 31 524 31 q 43 406 43 31 q 146 739 43 599 q 436 899 263 899 q 659 808 571 899 q 746 579 746 718 m 611 571 q 562 720 607 665 q 449 775 517 775 q 294 712 361 775 q 191 532 224 648 q 293 526 239 526 q 611 571 425 526 m 674 1017 q 661 991 674 1003 q 631 979 648 979 q 566 1030 608 979 q 454 1150 500 1110 q 346 1037 422 1122 q 269 987 302 987 q 228 1013 228 987 q 327 1150 228 1047 q 463 1242 414 1242 q 542 1196 492 1242 q 640 1086 599 1143 q 674 1017 674 1035 z "},"ë":{"ha":777,"x_min":43,"x_max":746,"o":"m 746 579 q 697 475 746 509 q 559 436 675 460 q 297 404 406 404 q 178 411 248 404 q 372 155 178 155 q 469 186 426 155 q 547 258 491 201 q 590 279 568 279 q 639 258 618 279 q 660 205 660 237 q 640 158 660 180 q 367 31 524 31 q 43 406 43 31 q 146 739 43 599 q 436 899 263 899 q 659 808 571 899 q 746 579 746 718 m 611 571 q 562 720 607 665 q 449 775 517 775 q 294 712 361 775 q 191 532 224 648 q 293 526 239 526 q 611 571 425 526 m 673 1071 q 585 997 673 997 q 510 1057 510 997 q 596 1145 510 1145 q 650 1123 627 1145 q 673 1071 673 1101 m 412 1053 q 311 979 412 979 q 246 1040 246 979 q 272 1103 246 1077 q 335 1129 297 1129 q 412 1053 412 1129 z "},"í":{"ha":526,"x_min":54,"x_max":454,"o":"m 454 140 q 249 52 454 52 q 134 56 164 52 q 54 118 54 70 q 200 193 54 193 q 195 452 195 387 q 204 699 195 555 q 127 762 127 701 q 278 828 127 828 q 407 762 407 828 q 334 700 407 705 q 325 453 325 533 q 339 196 325 321 q 454 140 454 196 m 428 1206 q 336 1074 428 1167 q 218 990 254 990 q 192 1001 203 990 q 180 1023 180 1011 q 227 1083 180 1038 q 327 1194 230 1087 q 391 1238 368 1238 q 428 1206 428 1238 z "},"ì":{"ha":526,"x_min":54,"x_max":454,"o":"m 454 140 q 249 52 454 52 q 134 56 164 52 q 54 118 54 70 q 200 193 54 193 q 195 452 195 387 q 204 699 195 555 q 127 762 127 701 q 278 828 127 828 q 407 762 407 828 q 334 700 407 705 q 325 453 325 533 q 339 196 325 321 q 454 140 454 196 m 385 1019 q 349 982 385 982 q 298 1004 332 982 l 110 1128 q 58 1189 58 1162 q 74 1221 58 1206 q 109 1236 90 1236 q 167 1210 132 1236 l 347 1071 q 385 1019 385 1042 z "},"î":{"ha":526,"x_min":54,"x_max":500,"o":"m 454 140 q 249 52 454 52 q 134 56 164 52 q 54 118 54 70 q 200 193 54 193 q 195 452 195 387 q 204 699 195 555 q 127 762 127 701 q 278 828 127 828 q 407 762 407 828 q 334 700 407 705 q 325 453 325 533 q 339 196 325 321 q 454 140 454 196 m 500 1017 q 487 991 500 1003 q 457 979 474 979 q 392 1030 434 979 q 281 1150 326 1110 q 172 1037 248 1122 q 95 987 128 987 q 54 1013 54 987 q 153 1150 54 1047 q 289 1242 241 1242 q 368 1196 318 1242 q 466 1086 425 1143 q 500 1017 500 1035 z "},"ï":{"ha":526,"x_min":54,"x_max":488,"o":"m 454 140 q 249 52 454 52 q 134 56 164 52 q 54 118 54 70 q 200 193 54 193 q 195 452 195 387 q 204 699 195 555 q 127 762 127 701 q 278 828 127 828 q 407 762 407 828 q 334 700 407 705 q 325 453 325 533 q 339 196 325 321 q 454 140 454 196 m 488 1071 q 400 997 488 997 q 325 1057 325 997 q 411 1145 325 1145 q 465 1123 442 1145 q 488 1071 488 1101 m 227 1053 q 126 979 227 979 q 61 1040 61 979 q 86 1103 61 1077 q 150 1129 112 1129 q 227 1053 227 1129 z "},"ñ":{"ha":829,"x_min":98,"x_max":747,"o":"m 747 461 q 694 140 747 300 q 614 41 662 41 q 570 57 588 41 q 551 96 551 73 q 584 219 551 102 q 616 453 616 337 q 452 717 616 717 q 298 647 357 717 q 236 457 236 575 q 255 274 236 391 q 273 106 273 156 q 207 -11 273 -11 q 160 4 173 -11 q 143 52 150 16 q 126 294 142 94 q 98 693 98 575 q 178 899 98 899 q 222 883 203 899 q 240 846 240 867 q 232 789 240 831 q 224 720 224 748 l 224 704 q 468 840 324 840 q 674 742 600 840 q 747 461 747 644 m 646 1136 q 593 1032 646 1084 q 487 981 541 981 q 305 1109 428 981 q 210 1004 252 1004 q 180 1042 180 1004 q 211 1111 180 1067 q 322 1193 269 1193 q 391 1147 346 1193 q 507 1065 446 1091 q 619 1169 574 1169 q 646 1136 646 1169 z "},"ó":{"ha":852,"x_min":40,"x_max":812,"o":"m 812 493 q 696 175 812 294 q 385 57 579 57 q 132 167 223 57 q 40 473 40 277 q 151 793 40 680 q 452 905 259 905 q 713 792 613 905 q 812 493 812 679 m 677 492 q 611 705 677 628 q 431 782 545 782 q 175 475 175 782 q 231 257 175 333 q 390 180 286 180 q 601 262 524 180 q 677 492 677 345 m 600 1206 q 508 1074 600 1167 q 390 990 427 990 q 364 1001 376 990 q 353 1023 353 1011 q 399 1083 353 1038 q 499 1194 402 1087 q 564 1238 540 1238 q 600 1206 600 1238 z "},"ò":{"ha":852,"x_min":40,"x_max":812,"o":"m 812 493 q 696 175 812 294 q 385 57 579 57 q 132 167 223 57 q 40 473 40 277 q 151 793 40 680 q 452 905 259 905 q 713 792 613 905 q 812 493 812 679 m 677 492 q 611 705 677 628 q 431 782 545 782 q 175 475 175 782 q 231 257 175 333 q 390 180 286 180 q 601 262 524 180 q 677 492 677 345 m 557 1019 q 521 982 557 982 q 471 1004 505 982 l 282 1128 q 231 1189 231 1162 q 246 1221 231 1206 q 281 1236 262 1236 q 339 1210 304 1236 l 519 1071 q 557 1019 557 1042 z "},"ô":{"ha":852,"x_min":40,"x_max":812,"o":"m 812 493 q 696 175 812 294 q 385 57 579 57 q 132 167 223 57 q 40 473 40 277 q 151 793 40 680 q 452 905 259 905 q 713 792 613 905 q 812 493 812 679 m 677 492 q 611 705 677 628 q 431 782 545 782 q 175 475 175 782 q 231 257 175 333 q 390 180 286 180 q 601 262 524 180 q 677 492 677 345 m 661 1017 q 648 991 661 1003 q 618 979 635 979 q 553 1030 595 979 q 441 1150 487 1110 q 333 1037 409 1122 q 256 987 289 987 q 215 1013 215 987 q 314 1150 215 1047 q 450 1242 401 1242 q 529 1196 479 1242 q 627 1086 586 1143 q 661 1017 661 1035 z "},"ö":{"ha":852,"x_min":40,"x_max":812,"o":"m 812 493 q 696 175 812 294 q 385 57 579 57 q 132 167 223 57 q 40 473 40 277 q 151 793 40 680 q 452 905 259 905 q 713 792 613 905 q 812 493 812 679 m 677 492 q 611 705 677 628 q 431 782 545 782 q 175 475 175 782 q 231 257 175 333 q 390 180 286 180 q 601 262 524 180 q 677 492 677 345 m 660 1071 q 572 997 660 997 q 497 1057 497 997 q 583 1145 497 1145 q 637 1123 614 1145 q 660 1071 660 1101 m 399 1053 q 298 979 399 979 q 233 1040 233 979 q 259 1103 233 1077 q 322 1129 284 1129 q 399 1053 399 1129 z "},"õ":{"ha":852,"x_min":40,"x_max":812,"o":"m 812 493 q 696 175 812 294 q 385 57 579 57 q 132 167 223 57 q 40 473 40 277 q 151 793 40 680 q 452 905 259 905 q 713 792 613 905 q 812 493 812 679 m 677 492 q 611 705 677 628 q 431 782 545 782 q 175 475 175 782 q 231 257 175 333 q 390 180 286 180 q 601 262 524 180 q 677 492 677 345 m 667 1136 q 614 1032 667 1084 q 508 981 562 981 q 326 1109 449 981 q 231 1004 273 1004 q 201 1042 201 1004 q 232 1111 201 1067 q 343 1193 290 1193 q 412 1147 367 1193 q 528 1065 467 1091 q 640 1169 595 1169 q 667 1136 667 1169 z "},"ú":{"ha":896,"x_min":106,"x_max":812,"o":"m 812 66 q 793 12 812 34 q 745 -11 773 -11 q 654 154 691 -11 q 376 -3 540 -3 q 106 429 106 -3 q 135 815 106 651 q 221 917 153 917 q 264 899 245 917 q 282 856 282 880 q 262 688 282 834 q 243 415 243 541 q 403 125 243 125 q 567 205 507 125 q 628 432 628 286 l 628 472 q 640 764 628 699 q 715 856 656 856 q 772 777 772 856 q 767 673 772 762 q 761 511 761 585 q 787 192 761 338 q 812 66 812 46 m 635 1206 q 543 1074 635 1167 q 425 990 461 990 q 399 1001 410 990 q 387 1023 387 1011 q 433 1083 387 1038 q 534 1194 437 1087 q 598 1238 574 1238 q 635 1206 635 1238 z "},"ù":{"ha":896,"x_min":106,"x_max":812,"o":"m 812 66 q 793 12 812 34 q 745 -11 773 -11 q 654 154 691 -11 q 376 -3 540 -3 q 106 429 106 -3 q 135 815 106 651 q 221 917 153 917 q 264 899 245 917 q 282 856 282 880 q 262 688 282 834 q 243 415 243 541 q 403 125 243 125 q 567 205 507 125 q 628 432 628 286 l 628 472 q 640 764 628 699 q 715 856 656 856 q 772 777 772 856 q 767 673 772 762 q 761 511 761 585 q 787 192 761 338 q 812 66 812 46 m 591 1019 q 555 982 591 982 q 505 1004 539 982 l 317 1128 q 265 1189 265 1162 q 281 1221 265 1206 q 315 1236 296 1236 q 374 1210 339 1236 l 554 1071 q 591 1019 591 1042 z "},"ü":{"ha":896,"x_min":106,"x_max":812,"o":"m 812 66 q 793 12 812 34 q 745 -11 773 -11 q 654 154 691 -11 q 376 -3 540 -3 q 106 429 106 -3 q 135 815 106 651 q 221 917 153 917 q 264 899 245 917 q 282 856 282 880 q 262 688 282 834 q 243 415 243 541 q 403 125 243 125 q 567 205 507 125 q 628 432 628 286 l 628 472 q 640 764 628 699 q 715 856 656 856 q 772 777 772 856 q 767 673 772 762 q 761 511 761 585 q 787 192 761 338 q 812 66 812 46 m 694 1071 q 607 997 694 997 q 532 1057 532 997 q 618 1145 532 1145 q 672 1123 649 1145 q 694 1071 694 1101 m 433 1053 q 333 979 433 979 q 268 1040 268 979 q 293 1103 268 1077 q 357 1129 319 1129 q 433 1053 433 1129 z "},"û":{"ha":896,"x_min":106,"x_max":812,"o":"m 812 66 q 793 12 812 34 q 745 -11 773 -11 q 654 154 691 -11 q 376 -3 540 -3 q 106 429 106 -3 q 135 815 106 651 q 221 917 153 917 q 264 899 245 917 q 282 856 282 880 q 262 688 282 834 q 243 415 243 541 q 403 125 243 125 q 567 205 507 125 q 628 432 628 286 l 628 472 q 640 764 628 699 q 715 856 656 856 q 772 777 772 856 q 767 673 772 762 q 761 511 761 585 q 787 192 761 338 q 812 66 812 46 m 696 1017 q 683 991 696 1003 q 652 979 669 979 q 587 1030 629 979 q 476 1150 522 1110 q 368 1037 444 1122 q 290 987 323 987 q 250 1013 250 987 q 349 1150 250 1047 q 484 1242 436 1242 q 564 1196 513 1242 q 661 1086 621 1143 q 696 1017 696 1035 z "},"†":{"ha":694,"x_min":41,"x_max":646,"o":"m 646 647 q 627 608 646 624 q 578 591 608 591 q 512 602 570 591 q 403 612 454 612 q 399 432 399 500 q 406 205 399 311 q 412 115 412 100 q 350 32 412 32 q 282 98 296 32 q 277 210 277 123 q 275 305 277 249 q 273 379 273 361 q 279 615 273 465 q 156 607 217 614 q 93 600 94 600 q 41 654 41 600 q 100 711 41 696 q 285 726 151 724 q 297 917 293 896 q 358 978 309 978 q 419 905 419 978 q 415 849 419 907 q 410 726 410 789 q 588 705 538 721 q 646 647 646 688 z "},"°":{"ha":514,"x_min":46,"x_max":465,"o":"m 465 803 q 406 645 465 705 q 244 583 345 583 q 98 634 151 583 q 46 775 46 684 q 107 935 46 872 q 262 997 168 997 q 410 944 354 997 q 465 803 465 890 m 392 804 q 355 893 392 858 q 261 928 319 928 q 158 887 196 928 q 119 772 119 846 q 153 686 119 718 q 245 654 187 654 q 352 696 311 654 q 392 804 392 739 z "},"¢":{"ha":618,"x_min":35,"x_max":581,"o":"m 581 289 q 521 214 581 250 q 347 161 456 177 q 352 7 348 81 q 355 -61 355 -64 q 298 -138 355 -138 q 225 -34 241 -138 q 220 113 220 3 l 220 165 q 35 433 35 234 q 98 657 35 569 q 277 768 162 745 q 315 964 304 929 q 382 1025 336 1025 q 441 965 441 1025 q 427 892 441 950 q 403 768 410 821 q 524 635 524 736 q 464 576 524 576 q 414 597 434 576 q 383 635 399 616 q 332 654 365 654 q 221 597 267 654 q 174 449 174 539 q 215 321 174 368 q 325 273 256 273 q 444 309 378 273 q 528 345 511 345 q 565 329 550 345 q 581 289 581 313 z "},"£":{"ha":722,"x_min":-16,"x_max":715,"o":"m 715 790 q 656 705 715 705 q 607 734 620 705 q 582 800 594 767 q 481 846 559 846 q 297 576 334 846 q 484 553 391 565 q 546 501 546 542 q 476 444 546 444 q 285 468 373 444 q 283 404 283 447 q 313 154 283 277 q 705 45 705 132 q 635 -8 705 -8 q 472 16 644 -8 q 93 46 293 41 q 26 56 45 47 q 4 94 4 66 q 144 157 4 157 l 176 157 q 154 435 154 309 l 154 478 l 146 478 q 72 470 110 478 q 32 463 35 463 q -16 513 -16 463 q 54 582 -16 565 q 165 590 86 589 q 479 961 221 961 q 651 911 585 961 q 715 790 715 863 z "},"§":{"ha":542,"x_min":29,"x_max":511,"o":"m 511 433 q 355 254 511 294 q 447 81 447 183 q 358 -100 447 -19 q 200 -172 279 -172 q 135 -119 135 -172 q 211 -43 135 -81 q 287 8 265 -16 q 313 81 313 37 q 273 152 313 123 q 171 207 260 161 q 64 290 96 245 q 29 407 29 336 q 158 611 29 549 q 92 745 92 668 q 163 913 92 852 q 359 974 234 974 q 461 909 461 974 q 435 863 461 876 q 358 850 414 852 q 253 829 283 847 q 218 761 218 810 q 245 701 218 724 q 322 659 264 684 q 511 433 511 573 m 387 433 q 293 538 387 492 l 250 558 q 155 419 155 518 q 244 307 155 345 q 268 346 249 336 q 314 358 271 347 q 387 433 387 377 z "},"•":{"ha":583,"x_min":56,"x_max":528,"o":"m 528 493 q 457 326 528 397 q 290 258 389 258 q 124 327 192 258 q 56 493 56 395 q 124 660 56 591 q 290 729 192 729 q 457 660 387 729 q 528 493 528 589 z "},"¶":{"ha":722,"x_min":49,"x_max":657,"o":"m 657 899 q 624 711 657 884 q 591 382 591 538 q 621 49 591 210 q 650 -107 650 -111 q 600 -170 650 -170 q 543 -111 562 -170 q 481 340 481 83 q 547 871 481 551 l 460 882 q 404 519 423 757 q 387 354 399 441 q 294 334 373 334 q 113 407 177 334 q 49 614 49 480 q 153 875 49 774 q 425 977 258 977 q 657 899 657 977 z "},"ß":{"ha":762,"x_min":74,"x_max":707,"o":"m 707 278 q 629 83 707 155 q 416 11 552 11 q 207 89 275 11 q 210 60 210 69 q 149 -18 210 -18 q 85 48 100 -18 q 74 254 74 99 q 83 561 74 465 q 161 840 101 753 q 364 946 234 946 q 535 883 469 946 q 602 725 602 820 q 458 546 602 580 q 707 278 707 481 m 572 271 q 463 415 572 360 q 363 458 413 437 q 321 528 321 481 q 342 587 321 566 q 396 623 351 596 q 473 730 473 667 q 445 801 473 774 q 367 827 416 827 q 232 709 267 827 q 201 343 201 608 q 202 286 201 329 q 203 215 203 243 q 222 221 216 221 q 294 175 246 221 q 421 135 337 135 q 532 172 492 135 q 572 271 572 209 z "},"®":{"ha":882,"x_min":24,"x_max":848,"o":"m 848 542 q 730 243 848 357 q 416 129 611 129 q 126 225 229 129 q 24 500 24 321 q 82 742 24 647 q 66 775 66 757 q 114 846 66 805 q 421 953 237 953 q 730 838 611 953 q 848 542 848 722 m 772 541 q 673 785 772 689 q 418 880 574 880 q 164 787 250 880 q 176 760 176 777 l 176 755 q 170 732 176 745 q 127 644 136 667 q 104 500 104 580 q 188 281 104 359 q 419 203 271 203 q 673 298 574 203 q 772 541 772 393 m 653 364 q 610 322 653 322 q 515 387 578 322 q 389 557 389 519 q 411 587 389 582 q 503 657 503 611 q 432 717 503 717 q 347 697 401 717 q 335 500 335 617 q 341 399 335 452 q 347 345 347 347 q 301 292 347 292 q 243 388 255 292 q 240 528 240 416 q 269 753 240 705 q 433 810 304 810 q 556 768 510 810 q 603 660 603 727 q 510 543 603 581 q 606 436 538 501 q 653 364 653 390 z "},"©":{"ha":882,"x_min":16,"x_max":851,"o":"m 851 532 q 736 231 851 348 q 436 114 622 114 q 129 225 243 114 q 16 528 16 336 q 203 882 16 741 q 261 940 206 917 q 411 965 319 965 q 724 848 602 965 q 851 532 851 726 m 775 528 q 672 789 775 688 q 401 889 569 889 q 302 872 342 889 q 268 838 298 860 q 201 785 221 803 q 94 528 94 686 q 185 279 94 371 q 429 187 275 187 q 681 280 587 187 q 775 528 775 374 m 610 692 q 596 656 610 671 q 562 642 583 642 q 509 679 546 642 q 429 717 472 717 q 336 667 377 717 q 294 545 294 616 q 421 386 294 425 q 535 366 440 380 q 579 329 579 360 q 490 273 579 273 q 282 349 368 273 q 196 538 196 425 q 269 731 196 650 q 440 811 342 811 q 563 771 512 811 q 610 692 610 734 z "},"™":{"ha":937,"x_min":18,"x_max":857,"o":"m 857 545 q 806 475 857 475 q 760 511 771 475 q 749 619 753 534 q 733 800 744 726 q 627 675 659 675 q 553 758 592 675 q 534 540 543 649 q 482 472 523 472 q 435 543 435 472 q 443 677 435 577 q 454 801 451 774 q 474 906 461 863 q 528 949 486 949 q 583 912 560 949 q 635 800 592 897 q 700 913 667 857 q 762 953 728 953 q 812 918 798 953 q 832 814 823 892 l 838 758 q 857 545 857 575 m 412 904 q 267 825 412 846 l 267 533 q 251 492 267 510 q 215 475 235 475 q 180 492 194 475 q 165 533 165 509 l 167 822 q 76 829 102 823 q 18 884 18 842 q 66 928 18 928 q 109 924 78 928 q 158 920 139 920 q 287 931 216 920 q 368 943 358 943 q 412 904 412 943 z "},"´":{"ha":694,"x_min":264,"x_max":511,"o":"m 511 1206 q 419 1074 511 1167 q 301 990 338 990 q 275 1001 287 990 q 264 1023 264 1011 q 310 1083 264 1038 q 410 1194 313 1087 q 475 1238 451 1238 q 511 1206 511 1238 z "},"¨":{"ha":694,"x_min":144,"x_max":571,"o":"m 571 1071 q 484 997 571 997 q 408 1057 408 997 q 494 1145 408 1145 q 548 1123 526 1145 q 571 1071 571 1101 m 310 1053 q 210 979 310 979 q 144 1040 144 979 q 170 1103 144 1077 q 233 1129 195 1129 q 310 1053 310 1129 z "},"≠":{"ha":764,"x_min":62,"x_max":720,"o":"m 509 660 q 667 646 625 657 q 720 590 720 631 q 628 536 720 536 q 471 546 643 536 l 414 383 q 646 373 590 383 q 720 314 720 359 q 628 260 720 260 q 531 265 614 260 q 372 272 446 271 q 343 196 353 218 q 282 130 315 130 q 269 132 276 130 q 238 180 238 140 q 241 210 238 193 q 260 269 244 220 q 154 262 205 267 q 110 257 109 257 q 62 307 62 257 q 120 370 62 354 q 297 383 166 382 q 354 549 309 418 q 179 541 259 549 q 110 533 98 533 q 62 576 62 533 q 198 654 62 638 q 395 660 244 660 q 430 751 406 692 q 481 810 453 810 q 496 808 488 810 q 534 764 534 798 q 528 722 534 748 q 509 660 526 713 z "},"Æ":{"ha":1476,"x_min":-8,"x_max":1507,"o":"m 1507 4 q 1489 -41 1507 -26 q 1439 -61 1476 -52 q 1433 -62 1438 -61 q 1422 -62 1427 -62 q 1402 -62 1418 -62 q 1375 -61 1387 -61 q 1034 -92 1220 -61 l 1035 -100 q 960 -178 1020 -178 q 911 -144 928 -178 q 882 -45 901 -123 q 760 395 868 13 q 257 358 526 370 q 151 12 190 178 q 117 -157 134 -73 q 52 -216 103 -216 q -8 -149 -8 -216 q 21 49 -8 -90 q 386 951 108 460 q 321 1018 321 966 q 509 1101 321 1101 l 530 1101 q 600 1158 553 1158 q 668 1097 645 1158 q 1215 1046 941 1086 q 1322 1018 1294 1034 q 1358 951 1358 997 q 1343 907 1358 924 q 1307 889 1328 889 l 1303 889 l 1289 890 q 1087 921 1188 905 q 726 960 904 948 q 865 545 795 770 q 1173 598 1022 565 q 1303 627 1298 627 q 1349 606 1330 627 q 1368 555 1368 585 q 1255 471 1368 500 q 904 411 1206 458 q 1004 39 956 231 q 1378 77 1302 77 q 1507 4 1507 77 m 720 526 q 572 964 657 728 l 551 965 q 314 497 389 671 q 720 526 531 508 z "},"Ø":{"ha":1200,"x_min":-11,"x_max":1160,"o":"m 1160 461 q 1000 48 1160 200 q 570 -104 840 -104 q 222 25 376 -104 q 49 -68 106 -68 q -11 -18 -11 -68 q 32 39 -11 9 q 143 118 87 79 q 49 432 49 266 q 232 848 49 690 q 635 997 404 997 q 949 905 802 997 q 1031 1007 990 956 q 1097 1047 1065 1047 q 1132 1033 1118 1047 q 1146 1000 1146 1019 q 1032 822 1146 951 q 1160 461 1160 682 m 863 793 q 632 865 775 865 q 324 753 455 865 q 193 437 193 641 q 257 208 193 300 q 863 793 583 477 m 1015 452 q 943 711 1015 602 q 332 113 671 405 q 576 31 408 31 q 902 140 789 31 q 1015 452 1015 249 z "},"∞":{"ha":1117,"x_min":60,"x_max":1053,"o":"m 322 774 q 534 639 465 774 q 634 739 570 700 q 764 778 699 778 q 972 701 897 778 q 1053 465 1053 619 q 976 247 1053 332 q 785 163 899 163 q 561 286 635 163 q 457 200 523 234 q 328 167 391 167 q 140 247 218 167 q 60 458 60 331 q 132 686 60 597 q 322 774 203 774 m 329 642 q 219 592 258 642 q 179 464 179 543 q 222 347 179 395 q 329 298 265 298 q 439 353 393 298 q 484 473 484 405 q 437 595 484 547 q 329 642 391 642 m 762 644 q 653 597 694 644 q 611 471 611 551 q 654 345 611 389 q 768 301 696 301 q 882 347 839 301 q 925 469 925 393 q 762 644 925 644 z "},"±":{"ha":764,"x_min":66,"x_max":699,"o":"m 699 514 q 669 467 699 478 q 570 458 644 458 l 436 458 q 410 313 420 345 q 358 267 394 267 q 309 325 309 267 q 332 465 309 317 q 130 479 168 471 q 66 532 66 491 q 138 585 66 585 q 208 580 146 585 q 325 575 270 575 l 343 575 q 347 659 347 631 q 346 693 347 671 q 345 724 345 715 q 395 783 345 783 q 450 673 450 783 q 448 631 450 662 q 446 571 446 594 q 528 568 521 568 q 575 570 543 568 q 623 571 606 571 q 699 514 699 571 m 676 151 q 631 100 676 113 q 489 92 597 92 q 146 121 279 92 q 72 182 72 137 q 138 237 72 237 q 238 221 130 237 q 464 204 345 204 q 524 205 486 204 q 578 205 562 205 q 676 151 676 205 z "},"≤":{"ha":764,"x_min":115,"x_max":708,"o":"m 656 808 q 632 758 656 780 q 574 720 621 747 q 277 494 435 636 q 475 326 376 399 q 581 252 528 288 q 624 186 624 220 q 566 131 624 131 q 392 231 521 131 q 139 490 139 427 q 237 629 139 540 q 424 772 316 701 q 596 864 561 864 q 656 808 656 864 m 708 47 q 656 3 708 3 q 580 7 645 3 q 458 11 515 11 q 300 6 380 11 q 197 1 220 1 q 115 47 115 1 q 154 86 115 79 q 422 104 250 104 q 640 97 594 104 q 708 47 708 87 z "},"≥":{"ha":764,"x_min":56,"x_max":648,"o":"m 625 490 q 372 231 625 427 q 199 131 243 131 q 140 186 140 131 q 183 252 140 220 q 289 326 236 288 q 488 494 388 399 q 191 720 329 636 q 132 758 144 747 q 109 808 109 780 q 168 864 109 864 q 340 772 203 864 q 526 629 448 701 q 625 490 625 540 m 648 47 q 567 1 648 1 q 464 6 544 1 q 306 11 384 11 q 184 7 250 11 q 109 3 119 3 q 56 47 56 3 q 123 97 56 87 q 342 104 170 104 q 610 86 515 104 q 648 47 648 79 z "},"¥":{"ha":667,"x_min":37,"x_max":615,"o":"m 615 389 q 596 344 615 361 q 547 326 577 326 q 496 336 541 326 q 393 355 442 349 q 406 127 406 168 q 342 11 406 11 q 279 86 279 11 q 281 129 279 87 q 282 212 282 171 q 278 367 282 275 q 178 372 222 372 q 136 372 159 372 q 107 371 112 371 q 37 425 37 371 q 136 492 37 492 q 265 482 176 492 q 125 713 218 602 q 65 811 65 783 q 84 853 65 835 q 126 871 102 871 q 228 795 175 871 q 347 574 271 734 q 422 711 374 616 q 496 846 467 803 q 551 880 522 880 q 612 825 612 880 q 406 471 612 753 q 565 450 528 461 q 615 389 615 433 z "},"µ":{"ha":896,"x_min":113,"x_max":812,"o":"m 113 429 q 135 815 113 690 q 221 917 153 917 q 264 899 245 917 q 282 856 282 880 q 266 688 282 834 q 250 415 250 541 q 298 176 250 239 q 424 125 335 125 q 573 205 518 125 q 628 432 628 286 l 628 472 q 640 764 628 699 q 715 856 656 856 q 772 777 772 856 q 767 673 772 762 q 761 511 761 585 q 787 192 761 338 q 812 66 812 46 q 793 12 812 34 q 745 -11 773 -11 q 654 154 691 -11 q 376 -3 540 -3 q 254 39 296 -3 q 279 -239 252 -52 q 280 -254 280 -247 q 264 -303 280 -284 q 225 -322 248 -321 q 154 -267 166 -323 q 113 429 113 -73 z "},"∂":{"ha":732,"x_min":36,"x_max":689,"o":"m 553 313 q 355 443 498 443 q 163 294 163 443 q 322 126 163 126 q 553 313 504 126 m 570 778 q 689 432 689 632 q 587 117 689 234 q 313 0 484 0 q 111 77 185 0 q 36 286 36 154 q 115 495 36 421 q 339 568 195 568 q 564 478 471 568 q 453 729 544 628 q 267 821 375 816 q 149 817 203 824 q 100 811 111 811 q 68 840 68 811 q 256 929 68 929 q 570 778 446 929 z "},"∑":{"ha":736,"x_min":36,"x_max":762,"o":"m 464 346 q 297 167 407 289 q 235 85 253 112 q 186 -3 196 31 q 427 -31 262 -31 q 614 -12 483 -31 q 699 -5 672 -5 q 753 -32 744 -5 q 755 -45 755 -38 q 704 -110 755 -87 q 424 -155 600 -155 q 36 -40 36 -155 q 54 45 36 -1 q 210 277 85 122 q 392 465 313 404 q 313 541 334 519 q 216 648 258 595 q 61 880 87 816 q 43 965 43 926 q 431 1080 43 1080 q 711 1035 607 1080 q 762 970 762 1013 q 760 957 762 963 q 706 930 751 930 q 621 937 680 930 q 433 956 490 956 q 193 928 269 956 q 304 758 208 878 q 471 579 342 711 q 557 461 557 491 q 528 408 557 438 q 464 346 496 377 z "},"∏":{"ha":1097,"x_min":20,"x_max":1149,"o":"m 793 909 l 624 909 q 357 913 472 909 q 326 564 349 849 q 313 129 313 343 q 313 36 313 85 q 314 -20 314 -14 q 299 -117 314 -89 q 240 -147 283 -147 q 183 -118 199 -147 q 168 -26 168 -91 q 176 468 168 265 q 210 917 189 766 q 65 929 149 920 q 20 986 20 940 q 34 1028 20 1010 q 69 1046 48 1046 q 320 1045 101 1046 q 550 1044 502 1044 q 822 1050 604 1045 q 1074 1055 1019 1055 q 1123 1037 1101 1055 q 1147 991 1145 1019 q 1125 940 1149 962 q 1071 916 1101 918 q 937 913 1032 913 q 922 416 922 678 q 924 104 922 250 q 926 -24 926 -43 q 854 -125 926 -125 q 797 -96 812 -125 q 783 -31 786 -77 q 781 127 781 22 q 782 572 779 411 q 793 909 786 805 z "},"π":{"ha":829,"x_min":0,"x_max":792,"o":"m 96 701 q 32 710 44 707 q 0 761 0 719 q 36 815 0 815 q 212 814 58 815 q 372 814 338 813 q 562 819 405 814 q 739 823 699 823 q 773 807 758 823 q 790 765 789 791 q 775 720 792 739 q 736 697 758 700 q 667 694 710 694 q 673 593 673 660 q 664 435 673 507 q 646 294 646 298 q 629 52 638 177 q 612 4 623 16 q 566 -11 600 -11 q 498 106 498 -11 q 517 274 498 156 q 536 457 536 391 q 532 692 536 513 l 424 692 q 258 694 330 692 q 278 461 278 624 q 225 140 278 300 q 144 41 193 41 q 100 57 118 41 q 82 96 82 73 q 115 219 82 102 q 147 453 147 337 q 96 701 147 652 z "},"∫":{"ha":653,"x_min":-7,"x_max":607,"o":"m 254 688 q 492 990 254 990 q 607 922 607 990 q 549 861 607 861 q 506 869 532 861 q 469 878 480 878 q 375 681 375 878 q 392 440 375 628 q 410 207 410 253 q 153 -142 410 -142 q 36 -110 82 -142 q -7 -44 -7 -81 q 3 -16 -7 -28 q 46 5 18 5 q 87 -5 67 5 q 160 -33 140 -33 q 283 204 283 -33 q 269 436 283 242 q 254 688 254 631 z "},"ª":{"ha":534,"x_min":60,"x_max":509,"o":"m 494 464 q 436 412 494 412 q 347 461 394 412 q 235 415 303 415 q 116 459 160 415 q 72 576 72 503 q 125 710 72 661 q 273 758 178 758 q 329 746 308 758 q 330 778 330 764 q 240 860 330 860 q 154 840 199 860 q 97 821 108 821 q 60 860 60 821 q 109 926 60 896 q 239 958 163 958 q 441 786 441 958 q 436 690 441 761 q 431 574 431 619 q 445 528 431 543 q 472 509 458 518 q 494 464 494 491 m 323 564 l 323 654 q 269 667 294 667 q 207 642 230 667 q 183 578 183 618 q 243 515 183 515 q 323 564 296 515 m 509 297 q 444 256 509 256 q 365 262 444 256 q 208 269 286 269 q 154 265 182 269 q 125 261 126 261 q 82 304 82 261 q 235 357 82 357 q 389 353 355 357 q 509 297 509 342 z "},"º":{"ha":576,"x_min":40,"x_max":546,"o":"m 546 668 q 471 465 546 543 q 275 387 395 387 q 102 458 163 387 q 40 657 40 528 q 117 867 40 788 q 313 946 193 946 q 484 872 421 946 q 546 668 546 798 m 431 654 q 300 836 431 836 q 197 791 237 836 q 155 667 155 743 q 281 498 155 498 q 390 540 350 498 q 431 654 431 582 m 504 273 q 460 231 504 231 q 431 235 458 231 q 378 239 404 239 q 225 232 304 239 q 142 225 146 225 q 78 267 78 225 q 196 323 78 311 q 350 326 231 326 q 504 273 504 326 z "},"Ω":{"ha":1339,"x_min":27,"x_max":1299,"o":"m 431 65 q 285 18 364 22 q 168 35 213 15 q 93 97 114 98 q 47 72 66 96 q 29 18 27 49 q 98 -63 32 -35 q 249 -88 157 -88 q 501 -29 374 -88 q 579 61 582 8 q 553 133 576 114 q 484 168 518 151 q 353 257 389 220 q 254 476 260 354 q 253 513 253 495 q 361 821 253 709 q 668 943 469 932 q 694 944 681 944 q 950 831 845 944 q 1054 579 1047 726 q 1055 538 1055 558 q 995 304 1055 395 q 787 143 932 210 q 719 105 730 117 q 703 28 700 84 q 781 -53 705 -26 q 991 -90 885 -90 q 1055 -87 1021 -90 q 1224 -50 1158 -82 q 1296 45 1299 -14 q 1272 97 1295 75 q 1223 117 1250 118 q 1156 46 1203 116 q 1042 18 1113 22 q 1010 17 1026 17 q 851 46 909 17 q 1120 241 1039 127 q 1198 530 1198 353 q 1197 578 1198 553 q 982 996 1183 854 q 698 1079 864 1079 q 661 1078 680 1079 q 263 909 410 1065 q 115 498 115 754 q 117 453 115 475 q 222 195 125 296 q 431 65 335 77 z "},"æ":{"ha":1132,"x_min":47,"x_max":1135,"o":"m 1135 804 q 1078 751 1135 751 q 999 767 1059 751 q 899 782 939 782 q 722 721 790 782 q 639 549 654 661 q 823 538 715 541 q 924 530 904 536 q 961 481 961 519 q 823 421 961 421 q 631 436 737 421 l 631 408 q 696 199 631 265 q 901 132 761 132 q 986 143 938 132 q 1046 154 1034 154 q 1096 106 1096 154 q 895 3 1096 3 q 596 131 700 3 q 530 36 590 36 q 479 121 479 36 q 481 163 479 147 q 301 82 400 82 q 117 150 187 82 q 47 332 47 217 q 135 574 47 483 q 359 664 221 664 q 513 615 439 664 q 361 758 481 758 q 263 731 316 758 q 160 668 238 719 q 109 650 132 650 q 70 667 86 650 q 53 708 53 684 q 117 786 53 747 q 380 872 256 872 q 595 747 526 872 q 900 909 681 909 q 1074 876 1006 909 q 1135 804 1135 846 m 507 419 q 376 558 507 558 q 237 495 293 558 q 180 339 180 433 q 224 235 180 273 q 343 197 269 197 q 461 261 414 197 q 507 419 507 325 z "},"ø":{"ha":951,"x_min":45,"x_max":905,"o":"m 905 458 q 777 148 905 279 q 468 17 648 17 q 273 64 368 17 q 170 -81 222 -8 q 97 -134 128 -134 q 56 -92 56 -134 q 94 -11 56 -65 q 191 121 142 55 q 45 439 45 248 q 169 760 45 635 q 492 884 292 884 q 668 843 589 884 q 745 977 707 909 q 804 1026 774 1026 q 847 981 847 1026 q 820 911 847 959 q 755 796 788 853 q 905 458 905 657 m 778 464 q 689 681 778 598 q 349 165 511 401 q 471 138 417 138 q 683 236 588 138 q 778 464 778 334 m 610 737 q 492 760 551 760 q 262 670 349 760 q 175 429 175 581 q 267 222 175 302 q 610 737 449 484 z "},"¿":{"ha":583,"x_min":22,"x_max":555,"o":"m 375 907 q 348 840 375 866 q 279 814 321 814 q 191 900 191 814 q 217 966 191 940 q 285 991 243 991 q 350 968 326 991 q 375 907 375 945 m 555 195 q 486 74 555 140 q 296 -7 402 -7 q 87 94 178 -7 q 22 294 22 168 q 85 493 22 408 q 147 559 111 528 q 192 596 170 577 q 244 711 224 628 q 263 755 252 743 q 306 770 276 770 q 370 689 370 770 q 307 538 370 608 q 214 450 268 503 q 157 293 157 385 q 197 165 157 214 q 298 117 237 117 q 432 195 366 117 q 504 252 480 252 q 555 195 555 252 z "},"¡":{"ha":347,"x_min":61,"x_max":239,"o":"m 231 893 q 204 837 231 861 q 140 812 178 812 q 85 834 109 812 q 62 885 62 855 q 87 940 62 918 q 153 962 113 962 q 208 942 186 962 q 231 893 231 922 m 239 419 q 193 26 239 149 q 125 -25 174 -25 q 61 41 61 -25 q 71 98 61 42 q 89 233 82 163 q 98 453 98 336 q 93 604 98 532 q 87 668 87 675 q 158 751 87 751 q 229 673 214 751 q 239 419 239 620 z "},"¬":{"ha":764,"x_min":3,"x_max":647,"o":"m 647 392 q 644 261 647 288 q 585 174 631 174 q 528 239 528 174 q 530 282 528 234 q 533 383 533 330 q 529 559 533 503 q 191 534 354 555 q 43 514 38 514 q 15 530 27 514 q 3 568 3 545 q 81 629 3 612 q 306 660 143 644 l 335 663 q 534 675 465 675 q 631 615 610 675 q 647 392 647 566 z "},"√":{"ha":1207,"x_min":107,"x_max":1231,"o":"m 564 158 q 785 648 627 409 q 1005 924 882 795 q 1146 1043 1114 1037 q 1158 1044 1152 1044 q 1223 986 1213 1044 q 1208 926 1231 947 q 942 624 1060 785 q 784 363 857 507 q 676 87 707 211 q 661 -8 669 39 q 612 -66 649 -60 q 591 -68 602 -68 q 488 8 537 -68 q 227 346 347 228 q 142 430 149 422 q 107 504 107 471 q 164 561 107 561 q 341 443 226 561 q 564 158 451 330 z "},"ƒ":{"ha":653,"x_min":-5,"x_max":607,"o":"m 607 922 q 549 861 607 861 q 506 869 532 861 q 469 878 480 878 q 375 681 375 878 q 383 550 375 625 q 454 554 415 550 q 500 558 493 558 q 554 505 554 558 q 415 439 554 439 l 396 439 q 410 207 410 304 q 153 -142 410 -142 q -5 -8 -5 -142 q 17 66 -5 37 q 72 94 39 94 q 117 76 98 94 q 136 33 136 58 q 121 0 136 18 q 160 -33 123 -33 q 283 204 283 -33 q 268 449 283 281 q 160 466 188 453 q 126 521 126 481 q 184 570 126 570 q 260 559 211 570 q 254 688 254 627 q 492 990 254 990 q 607 922 607 990 z "},"≈":{"ha":833,"x_min":54,"x_max":781,"o":"m 770 471 q 621 364 751 364 q 390 456 562 364 q 269 492 323 492 q 184 467 215 492 q 161 446 166 451 q 136 406 146 430 q 125 376 131 391 q 100 364 119 364 q 54 408 54 364 q 127 532 54 484 q 271 574 191 574 q 447 522 351 574 q 614 452 581 452 q 693 484 675 452 q 710 522 702 503 q 739 538 719 538 q 770 471 781 538 m 770 275 q 722 179 770 220 q 610 138 675 138 q 435 208 533 138 l 390 240 q 272 288 325 288 q 184 258 219 288 q 149 182 176 251 q 106 146 134 146 q 60 201 60 146 q 121 319 60 270 q 273 368 183 368 q 447 304 356 368 l 489 275 q 616 218 570 218 q 679 271 663 218 q 694 309 688 301 q 725 323 704 323 q 770 275 770 323 z "},"Δ":{"ha":1243,"x_min":163,"x_max":1120,"o":"m 999 25 q 945 26 979 26 q 792 24 909 26 q 606 22 675 22 q 262 49 351 22 q 199 71 212 64 q 165 114 169 87 q 174 158 163 136 q 207 210 176 163 q 411 561 305 361 q 538 831 517 760 q 567 922 560 909 q 611 945 579 945 q 670 909 655 945 q 789 673 685 873 q 918 441 841 574 q 1080 158 1026 255 q 1120 68 1120 87 q 1116 47 1120 59 q 1062 22 1104 24 q 999 25 1059 22 m 939 151 q 621 703 867 283 q 321 161 578 586 q 629 146 441 142 q 939 151 919 152 z "},"«":{"ha":729,"x_min":74,"x_max":703,"o":"m 703 715 q 646 653 703 691 q 490 546 525 573 q 610 412 528 491 q 668 326 668 356 q 624 282 668 282 q 498 378 595 282 q 408 488 442 434 q 380 551 380 532 q 497 667 380 587 q 663 753 624 753 q 703 715 703 753 m 422 265 q 378 224 422 224 q 206 336 338 224 q 74 488 74 448 q 196 640 74 541 q 354 737 315 737 q 399 694 399 737 q 334 623 399 669 q 184 493 240 555 q 351 353 234 442 q 422 265 422 297 z "},"»":{"ha":778,"x_min":35,"x_max":739,"o":"m 739 492 q 633 323 739 449 q 482 196 526 196 q 447 211 461 196 q 432 245 432 225 q 490 324 432 264 q 624 488 571 409 q 435 656 550 567 q 357 739 357 718 q 374 773 357 755 q 408 790 392 790 q 479 760 427 790 q 615 659 545 721 q 739 492 739 549 m 447 517 q 351 355 447 471 q 197 229 246 229 q 155 271 155 229 q 212 352 155 292 q 325 501 286 429 q 203 582 279 541 q 65 654 134 618 q 35 699 35 671 q 89 746 35 746 q 269 667 134 746 q 447 517 447 564 z "},"…":{"ha":1389,"x_min":139,"x_max":1249,"o":"m 1249 68 q 1143 -22 1249 -22 q 1050 72 1050 -22 q 1147 184 1050 184 q 1218 151 1187 184 q 1249 68 1249 117 m 768 58 q 741 -17 768 13 q 671 -46 713 -46 q 611 -19 635 -46 q 586 47 586 7 q 613 122 586 94 q 684 150 641 150 q 744 124 720 150 q 768 58 768 99 m 313 77 q 288 3 313 31 q 224 -25 262 -25 q 162 1 186 -25 q 139 69 139 26 q 166 153 139 119 q 232 186 194 186 q 313 77 313 186 z "}," ":{"ha":416,"x_min":0,"x_max":0,"o":""},"À":{"ha":1243,"x_min":-77,"x_max":1215,"o":"m 1215 -85 q 1152 -151 1215 -151 q 1053 -68 1107 -151 q 925 178 1014 -6 q 339 298 666 182 q -16 26 79 26 q -58 44 -40 26 q -77 87 -77 62 q -32 151 -77 115 q 58 222 14 186 q 204 354 135 283 q 87 449 87 400 q 106 497 87 477 q 150 517 124 517 q 212 498 171 517 q 297 460 283 465 q 604 983 570 819 q 624 1097 614 1040 q 688 1139 637 1139 q 743 1104 729 1139 q 757 1042 751 1084 q 768 971 763 991 q 1018 311 833 709 q 1078 315 1049 312 q 1105 317 1105 317 q 1181 249 1181 317 q 1103 179 1181 179 l 1083 179 q 1175 13 1109 125 q 1215 -85 1215 -58 m 861 313 q 672 814 752 549 q 429 408 574 595 q 861 313 640 331 m 804 1196 q 768 1158 804 1158 q 718 1181 752 1158 l 530 1304 q 478 1365 478 1338 q 494 1398 478 1383 q 528 1413 509 1413 q 587 1386 552 1413 l 767 1247 q 804 1196 804 1218 z "},"Ã":{"ha":1243,"x_min":-77,"x_max":1215,"o":"m 1215 -85 q 1152 -151 1215 -151 q 1053 -68 1107 -151 q 925 178 1014 -6 q 339 298 666 182 q -16 26 79 26 q -58 44 -40 26 q -77 87 -77 62 q -32 151 -77 115 q 58 222 14 186 q 204 354 135 283 q 87 449 87 400 q 106 497 87 477 q 150 517 124 517 q 212 498 171 517 q 297 460 283 465 q 604 983 570 819 q 624 1097 614 1040 q 688 1139 637 1139 q 743 1104 729 1139 q 757 1042 751 1084 q 768 971 763 991 q 1018 311 833 709 q 1078 315 1049 312 q 1105 317 1105 317 q 1181 249 1181 317 q 1103 179 1181 179 l 1083 179 q 1175 13 1109 125 q 1215 -85 1215 -58 m 861 313 q 672 814 752 549 q 429 408 574 595 q 861 313 640 331 m 914 1312 q 862 1208 914 1260 q 755 1157 809 1157 q 574 1286 696 1157 q 478 1181 520 1181 q 449 1218 449 1181 q 479 1287 449 1244 q 591 1369 537 1369 q 659 1324 614 1369 q 775 1242 714 1267 q 888 1345 843 1345 q 914 1312 914 1345 z "},"Õ":{"ha":1239,"x_min":56,"x_max":1182,"o":"m 1182 435 q 1026 -13 1182 148 q 599 -174 871 -174 q 205 -8 358 -174 q 56 427 56 154 q 187 892 56 714 q 602 1083 330 1083 q 1028 913 874 1083 q 1182 435 1182 743 m 1039 431 q 926 813 1039 681 q 604 946 813 946 q 303 817 406 946 q 200 439 200 687 q 315 91 200 221 q 612 -40 429 -40 q 922 83 808 -40 q 1039 431 1039 210 m 850 1312 q 797 1208 850 1260 q 691 1157 745 1157 q 509 1286 632 1157 q 414 1181 456 1181 q 385 1218 385 1181 q 415 1287 385 1244 q 526 1369 473 1369 q 595 1324 550 1369 q 711 1242 650 1267 q 823 1345 779 1345 q 850 1312 850 1345 z "},"Œ":{"ha":1723,"x_min":46,"x_max":1735,"o":"m 1735 56 q 1664 -19 1735 -2 q 1444 -31 1613 -31 l 1388 -31 q 1017 56 1159 -31 q 611 -149 881 -149 q 46 387 46 -149 q 205 912 46 727 q 646 1095 361 1095 q 1018 890 880 1095 q 1226 981 1095 946 q 1529 1018 1368 1018 q 1640 947 1640 1018 q 1590 884 1640 896 q 1444 876 1578 882 q 1078 777 1232 867 q 1126 579 1118 676 q 1440 600 1350 600 q 1540 530 1540 600 q 1455 463 1540 467 q 1126 441 1390 461 q 1075 172 1118 303 q 1386 103 1212 103 q 1550 109 1457 103 q 1667 115 1644 115 l 1675 115 q 1735 56 1735 115 m 994 469 q 896 825 994 677 q 647 960 806 960 q 191 389 191 960 q 289 81 191 176 q 611 -14 387 -14 q 895 113 795 -14 q 994 469 994 239 z "},"œ":{"ha":1250,"x_min":60,"x_max":1261,"o":"m 1261 865 q 1244 826 1261 842 q 1203 810 1227 810 q 1126 822 1184 810 q 1028 835 1067 835 q 897 815 966 835 q 808 579 839 700 q 990 533 943 553 q 1048 467 1048 508 q 1030 422 1048 439 q 985 404 1013 404 q 916 423 974 404 q 790 454 850 446 q 778 279 778 365 q 786 140 778 209 q 940 117 855 117 q 1074 122 999 117 q 1165 127 1149 127 q 1242 65 1242 127 q 1181 1 1242 19 q 996 -17 1126 -17 q 779 3 871 -17 q 684 39 702 19 q 659 165 659 66 q 659 190 659 172 q 660 216 660 208 q 367 74 544 74 q 144 164 229 74 q 60 408 60 255 q 176 736 60 608 q 471 865 293 865 q 725 728 643 865 q 839 928 804 907 q 1029 962 897 962 q 1261 865 1261 962 m 679 498 q 624 667 679 604 q 481 729 569 729 q 277 637 359 729 q 195 412 195 546 q 383 208 195 208 q 594 292 509 208 q 679 498 679 375 z "},"–":{"ha":694,"x_min":-60,"x_max":739,"o":"m 739 416 q 672 353 739 370 q 267 315 522 315 q -60 416 -60 315 q -16 457 -60 457 q 81 438 -14 457 q 269 419 176 419 q 550 442 409 419 q 693 465 691 465 q 739 416 739 465 z "},"—":{"ha":1389,"x_min":-45,"x_max":1459,"o":"m 1459 375 q 1446 340 1459 355 q 1411 326 1432 326 q 1295 351 1406 326 q 704 429 947 429 q 168 380 442 429 q 68 358 133 374 q 1 346 19 346 q -45 389 -45 346 q 14 447 -45 430 q 663 530 298 530 q 1383 441 1090 530 q 1459 375 1459 418 z "},"“":{"ha":557,"x_min":39,"x_max":510,"o":"m 510 1076 q 492 1041 510 1053 q 447 1019 469 1030 q 390 950 406 998 q 439 960 446 960 q 489 938 469 960 q 509 882 509 916 q 479 817 509 843 q 407 790 449 790 q 330 823 360 790 q 300 913 300 857 q 359 1052 300 989 q 471 1109 414 1109 q 510 1076 510 1109 m 250 844 q 224 784 250 808 q 155 760 198 760 q 72 803 105 760 q 39 911 39 846 q 75 1027 39 972 q 139 1080 108 1080 q 178 1046 178 1080 q 149 990 178 1030 q 121 913 121 951 q 122 892 121 899 q 187 917 163 917 q 250 844 250 917 z "},"”":{"ha":557,"x_min":43,"x_max":505,"o":"m 505 962 q 450 820 505 883 q 340 761 397 761 q 306 793 306 761 q 351 844 306 815 q 411 920 400 876 q 313 1002 313 926 q 338 1065 313 1039 q 403 1090 364 1090 q 505 962 505 1090 m 257 908 q 227 786 257 837 q 155 734 197 734 q 126 771 126 734 q 146 821 126 785 q 171 890 167 860 q 129 882 148 882 q 68 908 93 882 q 43 975 43 935 q 73 1042 43 1015 q 139 1069 102 1069 q 225 1027 193 1069 q 257 908 257 984 z "},"‘":{"ha":278,"x_min":43,"x_max":256,"o":"m 256 1061 q 201 1015 256 1041 q 136 937 144 987 q 220 861 220 933 q 194 799 220 824 q 131 774 168 774 q 68 802 91 774 q 43 885 43 833 q 102 1031 43 967 q 218 1090 157 1090 q 256 1061 256 1090 z "},"’":{"ha":278,"x_min":33,"x_max":241,"o":"m 241 953 q 194 806 241 865 q 87 749 149 749 q 41 783 41 749 q 72 819 41 806 q 127 858 113 838 q 144 929 144 882 q 33 1004 33 929 q 61 1065 33 1040 q 131 1090 88 1090 q 211 1053 180 1090 q 241 953 241 1015 z "},"÷":{"ha":764,"x_min":39,"x_max":677,"o":"m 447 701 q 418 639 447 667 q 351 611 389 611 q 286 640 311 611 q 260 713 260 669 q 282 774 260 749 q 342 799 304 799 q 415 769 384 799 q 447 701 447 740 m 677 463 q 597 404 677 404 q 491 410 592 404 q 294 416 390 416 q 195 414 252 416 q 125 412 139 412 q 39 471 39 412 q 100 525 39 514 q 197 529 121 529 q 564 525 433 529 q 677 463 677 522 m 468 241 q 440 173 468 199 q 367 147 412 147 q 282 250 282 147 q 307 323 282 296 q 372 350 332 350 q 468 241 468 350 z "},"◊":{"ha":1044,"x_min":140,"x_max":905,"o":"m 903 449 q 869 387 905 432 q 706 162 791 290 q 604 -9 621 35 q 581 -68 585 -61 q 546 -83 570 -83 q 498 -61 510 -83 q 404 90 482 -30 q 171 421 342 176 q 140 477 140 466 q 144 490 140 483 q 178 551 142 507 q 341 776 256 649 q 443 949 427 903 q 467 1007 462 1000 q 501 1022 477 1022 q 549 1000 537 1022 q 643 848 565 968 q 876 518 705 762 q 901 475 897 488 q 903 449 902 462 m 754 460 q 511 827 666 597 q 279 488 486 772 q 536 113 374 346 q 640 291 564 172 q 754 460 710 402 z "},"ÿ":{"ha":616,"x_min":20,"x_max":587,"o":"m 587 863 q 518 567 587 777 q 289 75 454 373 q 222 -59 256 8 q 153 -111 193 -111 q 110 -91 129 -111 q 90 -46 90 -71 q 150 101 90 -2 q 292 347 287 339 q 81 681 159 526 q 20 847 20 804 q 78 908 20 908 q 151 844 115 908 q 217 702 184 773 q 351 471 275 578 q 431 741 401 600 q 464 889 463 886 q 525 945 484 945 q 587 863 587 945 m 532 1071 q 445 997 532 997 q 370 1057 370 997 q 456 1145 370 1145 q 510 1123 487 1145 q 532 1071 532 1101 m 271 1053 q 171 979 271 979 q 106 1040 106 979 q 131 1103 106 1077 q 195 1129 157 1129 q 271 1053 271 1129 z "},"Ÿ":{"ha":943,"x_min":-14,"x_max":1007,"o":"m 1007 1039 q 909 842 1007 988 q 489 386 726 566 l 490 385 l 490 300 q 491 156 490 241 q 492 47 492 72 q 479 -134 492 -88 q 412 -192 463 -192 q 350 -86 350 -192 q 353 9 350 -81 q 355 184 355 100 l 355 358 q 123 676 248 458 q -14 1038 -14 919 q 54 1111 -14 1111 q 110 1082 96 1111 q 134 1003 119 1061 q 164 901 150 938 q 421 490 252 669 q 829 985 656 682 q 882 1077 855 1031 q 935 1111 905 1111 q 986 1089 964 1111 q 1007 1039 1007 1068 m 709 1247 q 621 1173 709 1173 q 546 1234 546 1173 q 632 1321 546 1321 q 686 1299 663 1321 q 709 1247 709 1278 m 448 1229 q 347 1156 448 1156 q 282 1217 282 1156 q 308 1279 282 1253 q 371 1305 333 1305 q 448 1229 448 1305 z "},"⁄":{"ha":248,"x_min":-265,"x_max":443,"o":"m 443 900 q 378 749 443 875 q 163 389 294 585 q -83 68 28 189 q -220 -39 -182 -39 q -265 5 -265 -39 q -183 115 -265 27 q 28 368 -62 243 q 329 879 175 574 q 396 950 365 950 q 443 900 443 950 z "},"€":{"ha":833,"x_min":5,"x_max":808,"o":"m 808 277 q 665 96 808 205 q 399 18 564 18 q 143 125 237 18 q 53 339 71 209 q 5 395 5 349 q 47 448 5 434 q 53 526 48 482 q 6 576 6 527 q 75 645 6 627 q 157 809 103 741 q 459 946 267 946 q 664 899 572 946 q 779 739 779 842 q 715 671 779 671 q 671 692 685 671 q 634 766 659 722 q 459 821 586 821 q 255 721 327 821 q 220 659 233 691 q 315 660 269 660 q 534 651 478 660 q 616 590 616 638 q 524 529 616 529 q 424 536 517 529 q 298 542 340 542 q 189 539 236 542 q 182 454 183 500 q 456 427 334 451 q 560 349 560 406 q 494 296 560 296 q 351 320 481 296 q 191 338 262 337 q 416 143 226 143 q 646 239 551 143 q 688 300 658 254 q 744 336 713 336 q 788 318 768 336 q 808 277 808 300 z "},"‹":{"ha":493,"x_min":43,"x_max":446,"o":"m 446 261 q 428 227 446 242 q 387 212 411 212 q 196 323 332 212 q 43 479 43 448 q 126 572 43 497 q 366 730 302 730 q 408 716 391 730 q 425 684 425 703 q 354 623 425 665 q 175 482 253 560 q 367 336 249 411 q 446 261 446 286 z "},"›":{"ha":514,"x_min":47,"x_max":464,"o":"m 464 507 q 360 337 464 469 q 203 205 256 205 q 157 221 176 205 q 138 256 138 237 q 201 322 138 266 q 351 493 285 397 q 142 619 283 550 q 47 699 47 666 q 60 727 47 714 q 90 739 72 739 q 309 644 148 739 q 464 507 464 553 z "},"":{"ha":819,"x_min":21,"x_max":745,"o":"m 745 925 q 719 853 745 880 q 650 827 693 827 q 553 908 579 827 q 283 612 283 906 q 285 574 283 586 l 309 574 q 479 579 387 574 q 585 585 571 585 q 694 544 671 585 q 710 428 710 517 q 694 46 710 182 q 628 -39 685 -39 q 562 39 562 -39 q 570 170 562 37 q 581 457 579 311 q 345 444 462 444 q 314 445 334 444 q 283 446 294 446 l 283 418 q 303 100 283 256 q 322 -53 322 -56 q 262 -118 322 -118 q 183 -20 200 -118 q 150 453 157 134 l 140 453 q 49 469 77 453 q 21 526 21 486 q 81 587 21 587 q 155 581 86 587 l 155 602 q 566 1035 155 1035 l 587 1035 q 633 1044 609 1044 q 713 1011 682 1044 q 745 925 745 977 z "},"":{"ha":939,"x_min":-28,"x_max":916,"o":"m 916 996 q 903 937 916 976 q 879 856 882 865 q 818 313 818 621 q 825 139 818 222 q 832 62 832 56 q 766 -14 832 -14 q 689 109 705 -14 q 685 290 685 145 q 730 790 685 492 q 564 865 673 865 q 319 624 374 865 q 604 532 604 607 q 546 472 604 472 q 455 491 534 472 q 306 511 376 509 q 301 396 301 451 q 330 152 301 278 q 359 11 359 26 q 304 -46 359 -46 q 210 85 245 -46 q 174 472 174 224 l 174 510 q 82 504 125 509 q 41 498 39 498 q -28 554 -28 498 q 161 624 -28 624 l 189 624 q 567 987 256 987 q 758 909 682 987 q 794 1024 774 991 q 851 1061 815 1061 q 916 996 916 1061 z "},"‡":{"ha":694,"x_min":62,"x_max":606,"o":"m 606 313 q 577 264 606 277 q 490 256 555 256 q 390 252 399 256 l 390 81 q 335 25 390 25 q 279 81 279 25 l 279 245 l 151 240 q 77 297 77 240 q 109 347 77 334 q 174 354 127 354 q 267 355 193 354 q 279 357 272 355 l 279 624 q 114 646 118 644 q 62 701 62 659 q 126 750 62 750 q 279 732 153 750 l 279 886 q 335 942 279 942 q 390 886 391 942 l 389 713 q 548 675 509 692 q 599 611 599 654 q 561 562 599 562 q 505 575 552 562 q 389 603 439 592 l 389 363 q 505 367 466 367 q 571 361 554 367 q 606 313 606 350 z "},"·":{"ha":528,"x_min":171,"x_max":375,"o":"m 375 497 q 343 412 375 446 q 265 378 311 378 q 198 406 224 378 q 171 479 171 435 q 203 570 171 532 q 282 607 236 607 q 348 576 320 607 q 375 497 375 545 z "},"‚":{"ha":278,"x_min":20,"x_max":245,"o":"m 245 62 q 213 -54 245 -5 q 142 -103 180 -103 q 96 -68 96 -103 q 120 -19 96 -54 q 144 52 144 16 q 143 68 144 62 q 93 56 116 56 q 41 78 62 56 q 20 136 20 101 q 45 196 20 174 q 114 218 71 218 q 209 175 172 218 q 245 62 245 132 z "},"„":{"ha":653,"x_min":52,"x_max":591,"o":"m 591 -4 q 547 -126 591 -77 q 461 -170 508 -170 q 421 -127 421 -170 q 450 -85 421 -111 q 479 -29 479 -58 q 468 21 479 -12 l 453 21 q 349 87 349 21 q 378 158 349 130 q 452 186 407 186 q 552 132 512 186 q 591 -4 591 79 m 262 18 q 220 -105 262 -56 q 121 -154 178 -154 q 82 -118 82 -154 q 123 -66 82 -98 q 165 14 163 -35 q 123 4 138 4 q 72 26 92 4 q 52 82 52 47 q 144 171 52 171 q 262 18 262 171 z "},"‰":{"ha":1208,"x_min":24,"x_max":1187,"o":"m 1187 268 q 1114 96 1187 166 q 939 25 1041 25 q 786 122 826 25 q 612 -14 736 -14 q 461 44 522 -14 q 400 193 400 102 q 463 343 400 283 q 619 404 525 404 q 765 332 713 404 q 997 478 831 478 q 1134 419 1081 478 q 1187 268 1187 360 m 1082 260 q 1052 344 1082 313 q 971 375 1021 375 q 868 339 907 375 q 829 241 829 302 q 861 158 829 189 q 945 127 892 127 q 1043 164 1004 127 q 1082 260 1082 201 m 729 207 q 700 281 729 252 q 625 310 671 310 q 543 277 576 310 q 509 197 509 244 q 541 121 509 151 q 621 90 572 90 q 699 123 669 90 q 729 207 729 156 m 464 761 q 397 609 464 674 q 239 543 330 543 q 85 614 151 543 q 24 774 24 679 q 92 924 24 860 q 243 981 153 981 q 401 917 338 981 q 464 761 464 854 m 354 750 q 323 839 354 805 q 241 873 292 873 q 163 843 194 873 q 132 765 132 812 q 163 678 132 713 q 241 643 195 643 q 321 673 289 643 q 354 750 354 704 m 818 928 q 760 823 818 893 q 583 608 618 654 q 347 261 455 444 q 238 57 341 251 q 171 -16 200 -16 q 136 0 151 -16 q 122 39 122 16 q 200 225 122 79 q 458 621 299 410 q 662 882 615 828 q 775 972 739 972 q 818 928 818 972 z "},"Â":{"ha":1243,"x_min":-77,"x_max":1215,"o":"m 1215 -85 q 1152 -151 1215 -151 q 1053 -68 1107 -151 q 925 178 1014 -6 q 339 298 666 182 q -16 26 79 26 q -58 44 -40 26 q -77 87 -77 62 q -32 151 -77 115 q 58 222 14 186 q 204 354 135 283 q 87 449 87 400 q 106 497 87 477 q 150 517 124 517 q 212 498 171 517 q 297 460 283 465 q 604 983 570 819 q 624 1097 614 1040 q 688 1139 637 1139 q 743 1104 729 1139 q 757 1042 751 1084 q 768 971 763 991 q 1018 311 833 709 q 1078 315 1049 312 q 1105 317 1105 317 q 1181 249 1181 317 q 1103 179 1181 179 l 1083 179 q 1175 13 1109 125 q 1215 -85 1215 -58 m 861 313 q 672 814 752 549 q 429 408 574 595 q 861 313 640 331 m 909 1193 q 896 1167 909 1179 q 865 1156 882 1156 q 800 1206 842 1156 q 689 1326 734 1286 q 581 1213 656 1299 q 503 1164 536 1164 q 463 1189 463 1164 q 562 1326 463 1223 q 697 1418 649 1418 q 777 1372 726 1418 q 874 1262 833 1320 q 909 1193 909 1211 z "},"Ê":{"ha":993,"x_min":26,"x_max":974,"o":"m 974 64 q 836 -46 974 6 q 521 -113 703 -96 q 197 -122 412 -122 q 94 -117 121 -122 q 26 -58 26 -104 q 45 -11 26 -31 q 90 8 64 8 l 153 8 q 186 704 186 173 q 183 951 186 726 q 137 951 161 951 q 113 950 113 950 q 41 1013 41 950 q 79 1070 41 1054 q 197 1084 113 1084 q 760 1021 549 1084 q 900 921 900 978 q 882 878 900 897 q 843 859 864 859 q 791 875 831 859 q 705 904 741 896 q 319 946 613 927 q 317 557 319 823 q 481 551 402 551 q 595 555 536 551 q 659 559 654 559 q 732 497 732 559 q 670 435 732 448 q 481 427 628 427 q 314 431 399 427 q 289 8 307 119 l 317 8 q 726 49 589 8 q 832 94 764 60 q 913 122 887 122 q 956 104 937 122 q 974 64 974 87 m 722 1193 q 709 1167 722 1179 q 679 1156 696 1156 q 614 1206 656 1156 q 503 1326 548 1286 q 394 1213 470 1299 q 317 1164 350 1164 q 276 1189 276 1164 q 375 1326 276 1223 q 511 1418 463 1418 q 590 1372 540 1418 q 688 1262 647 1320 q 722 1193 722 1211 z "},"Á":{"ha":1243,"x_min":-77,"x_max":1215,"o":"m 1215 -85 q 1152 -151 1215 -151 q 1053 -68 1107 -151 q 925 178 1014 -6 q 339 298 666 182 q -16 26 79 26 q -58 44 -40 26 q -77 87 -77 62 q -32 151 -77 115 q 58 222 14 186 q 204 354 135 283 q 87 449 87 400 q 106 497 87 477 q 150 517 124 517 q 212 498 171 517 q 297 460 283 465 q 604 983 570 819 q 624 1097 614 1040 q 688 1139 637 1139 q 743 1104 729 1139 q 757 1042 751 1084 q 768 971 763 991 q 1018 311 833 709 q 1078 315 1049 312 q 1105 317 1105 317 q 1181 249 1181 317 q 1103 179 1181 179 l 1083 179 q 1175 13 1109 125 q 1215 -85 1215 -58 m 861 313 q 672 814 752 549 q 429 408 574 595 q 861 313 640 331 m 848 1382 q 755 1250 848 1343 q 637 1166 674 1166 q 612 1177 623 1166 q 600 1200 600 1187 q 646 1259 600 1215 q 747 1370 650 1263 q 811 1414 787 1414 q 848 1382 848 1414 z "},"Ë":{"ha":993,"x_min":26,"x_max":974,"o":"m 974 64 q 836 -46 974 6 q 521 -113 703 -96 q 197 -122 412 -122 q 94 -117 121 -122 q 26 -58 26 -104 q 45 -11 26 -31 q 90 8 64 8 l 153 8 q 186 704 186 173 q 183 951 186 726 q 137 951 161 951 q 113 950 113 950 q 41 1013 41 950 q 79 1070 41 1054 q 197 1084 113 1084 q 760 1021 549 1084 q 900 921 900 978 q 882 878 900 897 q 843 859 864 859 q 791 875 831 859 q 705 904 741 896 q 319 946 613 927 q 317 557 319 823 q 481 551 402 551 q 595 555 536 551 q 659 559 654 559 q 732 497 732 559 q 670 435 732 448 q 481 427 628 427 q 314 431 399 427 q 289 8 307 119 l 317 8 q 726 49 589 8 q 832 94 764 60 q 913 122 887 122 q 956 104 937 122 q 974 64 974 87 m 721 1247 q 633 1173 721 1173 q 558 1234 558 1173 q 644 1321 558 1321 q 698 1299 675 1321 q 721 1247 721 1278 m 460 1229 q 359 1156 460 1156 q 294 1217 294 1156 q 320 1279 294 1253 q 383 1305 345 1305 q 460 1229 460 1305 z "},"È":{"ha":993,"x_min":26,"x_max":974,"o":"m 974 64 q 836 -46 974 6 q 521 -113 703 -96 q 197 -122 412 -122 q 94 -117 121 -122 q 26 -58 26 -104 q 45 -11 26 -31 q 90 8 64 8 l 153 8 q 186 704 186 173 q 183 951 186 726 q 137 951 161 951 q 113 950 113 950 q 41 1013 41 950 q 79 1070 41 1054 q 197 1084 113 1084 q 760 1021 549 1084 q 900 921 900 978 q 882 878 900 897 q 843 859 864 859 q 791 875 831 859 q 705 904 741 896 q 319 946 613 927 q 317 557 319 823 q 481 551 402 551 q 595 555 536 551 q 659 559 654 559 q 732 497 732 559 q 670 435 732 448 q 481 427 628 427 q 314 431 399 427 q 289 8 307 119 l 317 8 q 726 49 589 8 q 832 94 764 60 q 913 122 887 122 q 956 104 937 122 q 974 64 974 87 m 618 1196 q 582 1158 618 1158 q 532 1181 566 1158 l 343 1304 q 292 1365 292 1338 q 307 1398 292 1383 q 342 1413 323 1413 q 400 1386 366 1413 l 581 1247 q 618 1196 618 1218 z "},"Í":{"ha":551,"x_min":0,"x_max":541,"o":"m 541 -56 q 475 -145 541 -112 q 290 -178 410 -178 q 106 -152 172 -178 q 41 -83 41 -127 q 109 -12 41 -12 q 155 -22 124 -12 q 215 -39 202 -36 q 243 412 243 233 q 167 945 243 704 q 98 926 137 941 q 53 914 64 914 q 16 933 31 914 q 0 981 0 952 q 207 1079 0 1079 q 424 1041 344 1079 q 500 946 500 1005 q 457 893 500 893 q 406 906 447 893 q 313 932 353 923 q 383 412 383 686 q 351 -40 383 237 q 429 -12 378 -33 q 484 4 466 4 q 524 -13 507 4 q 541 -56 541 -31 m 387 1382 q 294 1250 387 1343 q 176 1166 213 1166 q 151 1177 162 1166 q 139 1200 139 1187 q 185 1259 139 1215 q 286 1370 189 1263 q 350 1414 326 1414 q 387 1382 387 1414 z "},"Î":{"ha":551,"x_min":0,"x_max":541,"o":"m 541 -56 q 475 -145 541 -112 q 290 -178 410 -178 q 106 -152 172 -178 q 41 -83 41 -127 q 109 -12 41 -12 q 155 -22 124 -12 q 215 -39 202 -36 q 243 412 243 233 q 167 945 243 704 q 98 926 137 941 q 53 914 64 914 q 16 933 31 914 q 0 981 0 952 q 207 1079 0 1079 q 424 1041 344 1079 q 500 946 500 1005 q 457 893 500 893 q 406 906 447 893 q 313 932 353 923 q 383 412 383 686 q 351 -40 383 237 q 429 -12 378 -33 q 484 4 466 4 q 524 -13 507 4 q 541 -56 541 -31 m 448 1193 q 434 1167 448 1179 q 404 1156 421 1156 q 339 1206 381 1156 q 228 1326 273 1286 q 119 1213 195 1299 q 42 1164 75 1164 q 1 1189 1 1164 q 100 1326 1 1223 q 236 1418 188 1418 q 315 1372 265 1418 q 413 1262 372 1320 q 448 1193 448 1211 z "},"Ï":{"ha":551,"x_min":0,"x_max":541,"o":"m 541 -56 q 475 -145 541 -112 q 290 -178 410 -178 q 106 -152 172 -178 q 41 -83 41 -127 q 109 -12 41 -12 q 155 -22 124 -12 q 215 -39 202 -36 q 243 412 243 233 q 167 945 243 704 q 98 926 137 941 q 53 914 64 914 q 16 933 31 914 q 0 981 0 952 q 207 1079 0 1079 q 424 1041 344 1079 q 500 946 500 1005 q 457 893 500 893 q 406 906 447 893 q 313 932 353 923 q 383 412 383 686 q 351 -40 383 237 q 429 -12 378 -33 q 484 4 466 4 q 524 -13 507 4 q 541 -56 541 -31 m 446 1247 q 359 1173 446 1173 q 283 1234 283 1173 q 370 1321 283 1321 q 424 1299 401 1321 q 446 1247 446 1278 m 185 1229 q 85 1156 185 1156 q 20 1217 20 1156 q 45 1279 20 1253 q 109 1305 71 1305 q 185 1229 185 1305 z "},"Ì":{"ha":551,"x_min":0,"x_max":541,"o":"m 541 -56 q 475 -145 541 -112 q 290 -178 410 -178 q 106 -152 172 -178 q 41 -83 41 -127 q 109 -12 41 -12 q 155 -22 124 -12 q 215 -39 202 -36 q 243 412 243 233 q 167 945 243 704 q 98 926 137 941 q 53 914 64 914 q 16 933 31 914 q 0 981 0 952 q 207 1079 0 1079 q 424 1041 344 1079 q 500 946 500 1005 q 457 893 500 893 q 406 906 447 893 q 313 932 353 923 q 383 412 383 686 q 351 -40 383 237 q 429 -12 378 -33 q 484 4 466 4 q 524 -13 507 4 q 541 -56 541 -31 m 343 1196 q 307 1158 343 1158 q 257 1181 291 1158 l 68 1304 q 17 1365 17 1338 q 33 1398 17 1383 q 67 1413 48 1413 q 125 1386 91 1413 l 306 1247 q 343 1196 343 1218 z "},"Ó":{"ha":1239,"x_min":56,"x_max":1182,"o":"m 1182 435 q 1026 -13 1182 148 q 599 -174 871 -174 q 205 -8 358 -174 q 56 427 56 154 q 187 892 56 714 q 602 1083 330 1083 q 1028 913 874 1083 q 1182 435 1182 743 m 1039 431 q 926 813 1039 681 q 604 946 813 946 q 303 817 406 946 q 200 439 200 687 q 315 91 200 221 q 612 -40 429 -40 q 922 83 808 -40 q 1039 431 1039 210 m 783 1382 q 691 1250 783 1343 q 573 1166 610 1166 q 547 1177 559 1166 q 536 1200 536 1187 q 582 1259 536 1215 q 682 1370 585 1263 q 747 1414 723 1414 q 783 1382 783 1414 z "},"Ô":{"ha":1239,"x_min":56,"x_max":1182,"o":"m 1182 435 q 1026 -13 1182 148 q 599 -174 871 -174 q 205 -8 358 -174 q 56 427 56 154 q 187 892 56 714 q 602 1083 330 1083 q 1028 913 874 1083 q 1182 435 1182 743 m 1039 431 q 926 813 1039 681 q 604 946 813 946 q 303 817 406 946 q 200 439 200 687 q 315 91 200 221 q 612 -40 429 -40 q 922 83 808 -40 q 1039 431 1039 210 m 844 1193 q 831 1167 844 1179 q 801 1156 818 1156 q 736 1206 778 1156 q 625 1326 670 1286 q 516 1213 592 1299 q 439 1164 472 1164 q 398 1189 398 1164 q 497 1326 398 1223 q 633 1418 585 1418 q 712 1372 662 1418 q 810 1262 769 1320 q 844 1193 844 1211 z "},"":{"ha":1239,"x_min":56,"x_max":1182,"o":"m 1182 435 q 1026 -13 1182 148 q 599 -174 871 -174 q 205 -8 358 -174 q 56 427 56 154 q 187 892 56 714 q 602 1083 330 1083 q 1028 913 874 1083 q 1182 435 1182 743 m 1039 431 q 926 813 1039 681 q 604 946 813 946 q 303 817 406 946 q 200 439 200 687 q 315 91 200 221 q 612 -40 429 -40 q 922 83 808 -40 q 1039 431 1039 210 m 907 342 q 880 283 907 315 q 761 197 838 232 q 608 162 684 162 q 472 202 530 162 q 395 282 424 236 q 368 357 368 324 q 382 397 368 381 q 414 414 395 414 q 450 389 433 414 q 521 294 503 312 q 619 255 562 255 q 724 298 669 255 q 804 366 764 332 q 859 393 839 393 q 891 377 876 393 q 907 342 907 361 m 792 575 q 764 578 779 575 q 701 635 701 591 q 703 652 701 643 q 783 722 718 722 q 806 720 794 722 q 867 646 867 707 q 846 595 867 614 q 792 575 825 575 m 606 669 q 526 614 594 614 q 493 617 510 614 q 439 673 439 629 q 441 691 439 682 q 528 762 456 762 q 547 760 537 762 q 608 688 608 746 q 606 669 608 679 z "},"Ò":{"ha":1239,"x_min":56,"x_max":1182,"o":"m 1182 435 q 1026 -13 1182 148 q 599 -174 871 -174 q 205 -8 358 -174 q 56 427 56 154 q 187 892 56 714 q 602 1083 330 1083 q 1028 913 874 1083 q 1182 435 1182 743 m 1039 431 q 926 813 1039 681 q 604 946 813 946 q 303 817 406 946 q 200 439 200 687 q 315 91 200 221 q 612 -40 429 -40 q 922 83 808 -40 q 1039 431 1039 210 m 740 1196 q 704 1158 740 1158 q 654 1181 688 1158 l 465 1304 q 414 1365 414 1338 q 429 1398 414 1383 q 464 1413 445 1413 q 522 1386 488 1413 l 703 1247 q 740 1196 740 1218 z "},"Ú":{"ha":1192,"x_min":106,"x_max":1157,"o":"m 1157 1010 q 1100 950 1157 950 q 1051 962 1086 950 q 1076 599 1076 756 q 931 6 1076 210 q 514 -197 785 -197 q 211 -83 317 -197 q 106 248 106 31 q 310 935 106 611 l 275 930 q 269 930 273 930 q 262 929 264 929 q 207 985 207 929 q 429 1088 207 1088 q 574 1047 512 1088 q 631 968 631 1010 q 611 922 631 943 q 567 901 591 901 q 520 920 549 901 q 465 949 485 943 q 240 249 240 616 q 507 -64 240 -64 q 942 582 942 -64 q 914 960 942 806 q 856 949 886 949 q 814 969 832 949 q 796 1018 796 989 q 852 1082 796 1057 q 1002 1109 910 1109 q 1115 1081 1072 1109 q 1157 1010 1157 1053 m 835 1382 q 743 1250 835 1343 q 625 1166 661 1166 q 599 1177 610 1166 q 587 1200 587 1187 q 633 1259 587 1215 q 734 1370 637 1263 q 798 1414 774 1414 q 835 1382 835 1414 z "},"Û":{"ha":1192,"x_min":106,"x_max":1157,"o":"m 1157 1010 q 1100 950 1157 950 q 1051 962 1086 950 q 1076 599 1076 756 q 931 6 1076 210 q 514 -197 785 -197 q 211 -83 317 -197 q 106 248 106 31 q 310 935 106 611 l 275 930 q 269 930 273 930 q 262 929 264 929 q 207 985 207 929 q 429 1088 207 1088 q 574 1047 512 1088 q 631 968 631 1010 q 611 922 631 943 q 567 901 591 901 q 520 920 549 901 q 465 949 485 943 q 240 249 240 616 q 507 -64 240 -64 q 942 582 942 -64 q 914 960 942 806 q 856 949 886 949 q 814 969 832 949 q 796 1018 796 989 q 852 1082 796 1057 q 1002 1109 910 1109 q 1115 1081 1072 1109 q 1157 1010 1157 1053 m 896 1193 q 883 1167 896 1179 q 852 1156 869 1156 q 787 1206 829 1156 q 676 1326 722 1286 q 568 1213 644 1299 q 490 1164 524 1164 q 450 1189 450 1164 q 549 1326 450 1223 q 684 1418 636 1418 q 764 1372 713 1418 q 861 1262 821 1320 q 896 1193 896 1211 z "},"Ù":{"ha":1192,"x_min":106,"x_max":1157,"o":"m 1157 1010 q 1100 950 1157 950 q 1051 962 1086 950 q 1076 599 1076 756 q 931 6 1076 210 q 514 -197 785 -197 q 211 -83 317 -197 q 106 248 106 31 q 310 935 106 611 l 275 930 q 269 930 273 930 q 262 929 264 929 q 207 985 207 929 q 429 1088 207 1088 q 574 1047 512 1088 q 631 968 631 1010 q 611 922 631 943 q 567 901 591 901 q 520 920 549 901 q 465 949 485 943 q 240 249 240 616 q 507 -64 240 -64 q 942 582 942 -64 q 914 960 942 806 q 856 949 886 949 q 814 969 832 949 q 796 1018 796 989 q 852 1082 796 1057 q 1002 1109 910 1109 q 1115 1081 1072 1109 q 1157 1010 1157 1053 m 791 1196 q 755 1158 791 1158 q 705 1181 739 1158 l 517 1304 q 465 1365 465 1338 q 481 1398 465 1383 q 515 1413 496 1413 q 574 1386 539 1413 l 754 1247 q 791 1196 791 1218 z "},"ı":{"ha":526,"x_min":54,"x_max":454,"o":"m 454 140 q 249 52 454 52 q 134 56 164 52 q 54 118 54 70 q 200 193 54 193 q 195 452 195 387 q 204 699 195 555 q 127 762 127 701 q 278 828 127 828 q 407 762 407 828 q 334 700 407 705 q 325 453 325 533 q 339 196 325 321 q 454 140 454 196 z "},"ˆ":{"ha":694,"x_min":126,"x_max":572,"o":"m 572 1017 q 559 991 572 1003 q 529 979 546 979 q 464 1030 506 979 q 353 1150 398 1110 q 244 1037 320 1122 q 167 987 200 987 q 126 1013 126 987 q 225 1150 126 1047 q 361 1242 313 1242 q 440 1196 390 1242 q 538 1086 497 1143 q 572 1017 572 1035 z "},"˜":{"ha":694,"x_min":113,"x_max":578,"o":"m 578 1136 q 525 1032 578 1084 q 419 981 473 981 q 237 1109 360 981 q 142 1004 184 1004 q 113 1042 113 1004 q 143 1111 113 1067 q 254 1193 201 1193 q 323 1147 278 1193 q 439 1065 378 1091 q 551 1169 507 1169 q 578 1136 578 1169 z "},"¯":{"ha":694,"x_min":135,"x_max":558,"o":"m 558 1059 q 536 1020 558 1038 q 479 996 513 1000 q 182 979 332 979 q 135 1003 135 979 q 153 1045 135 1023 q 195 1072 171 1067 q 275 1078 211 1076 q 402 1086 330 1080 q 485 1092 467 1092 q 558 1059 558 1092 z "},"˘":{"ha":694,"x_min":82,"x_max":621,"o":"m 621 1157 q 595 1097 621 1129 q 475 1011 553 1046 q 322 977 397 977 q 186 1017 244 977 q 109 1097 138 1050 q 82 1171 82 1138 q 96 1211 82 1195 q 127 1227 109 1227 q 164 1203 146 1227 q 235 1109 216 1126 q 334 1069 275 1069 q 437 1112 383 1069 q 518 1179 478 1146 q 572 1207 553 1207 q 605 1191 590 1207 q 621 1157 621 1175 z "},"˙":{"ha":694,"x_min":264,"x_max":437,"o":"m 437 1015 q 413 958 437 982 q 354 933 388 933 q 291 963 318 933 q 264 1034 264 992 q 288 1090 264 1067 q 339 1114 311 1114 q 405 1082 372 1114 q 437 1015 437 1051 z "},"˚":{"ha":694,"x_min":189,"x_max":509,"o":"m 509 1122 q 464 1007 509 1053 q 349 962 418 962 q 234 1007 279 962 q 189 1122 189 1052 q 233 1231 189 1189 q 349 1272 277 1272 q 466 1232 423 1272 q 509 1122 509 1192 m 437 1122 q 413 1185 437 1160 q 354 1211 389 1211 q 289 1185 314 1211 q 264 1117 264 1159 q 286 1052 264 1078 q 342 1026 309 1026 q 410 1054 382 1026 q 437 1122 437 1082 z "},"¸":{"ha":694,"x_min":227,"x_max":521,"o":"m 521 -96 q 465 -196 521 -155 q 318 -239 406 -239 q 227 -192 227 -239 q 268 -158 227 -158 q 292 -160 274 -158 q 322 -163 310 -163 q 421 -96 421 -163 q 367 -47 421 -52 q 311 -41 317 -43 q 293 -8 293 -35 q 364 131 293 68 l 408 131 q 390 49 390 88 q 393 20 390 39 q 487 -16 453 16 q 521 -96 521 -47 z "},"˝":{"ha":694,"x_min":233,"x_max":585,"o":"m 585 1183 q 528 1100 585 1161 q 395 978 414 978 q 357 1007 357 978 q 460 1154 357 1050 q 547 1206 511 1206 q 585 1183 585 1206 m 374 1175 q 322 1038 374 1162 q 301 991 307 1000 q 272 975 290 975 q 233 1028 233 975 q 273 1141 233 1063 q 347 1206 307 1206 q 374 1175 374 1206 z "},"˛":{"ha":694,"x_min":225,"x_max":559,"o":"m 559 -139 q 508 -202 559 -172 q 380 -235 452 -235 q 269 -177 313 -235 q 225 -32 225 -119 q 254 64 225 23 q 315 104 283 104 q 353 65 353 104 q 338 24 353 53 q 323 -31 323 -5 q 347 -117 323 -81 q 395 -150 369 -150 q 452 -124 409 -150 q 519 -98 495 -98 q 559 -139 559 -98 z "},"ˇ":{"ha":694,"x_min":110,"x_max":590,"o":"m 590 1202 q 562 1164 590 1183 q 490 1121 526 1143 q 398 1034 452 1095 q 335 989 358 989 q 323 990 328 989 q 170 1149 256 1072 q 110 1215 110 1201 q 158 1251 110 1251 q 353 1101 222 1251 q 474 1214 413 1172 q 547 1249 524 1249 q 575 1233 561 1249 q 590 1202 590 1217 z "},"Ł":{"ha":1029,"x_min":71,"x_max":971,"o":"m 971 46 q 895 -50 971 -20 q 712 -83 850 -67 q 298 -104 530 -104 q 213 -105 255 -104 q 174 -106 172 -106 q 75 -43 75 -106 q 187 24 75 24 q 237 22 220 24 q 272 354 261 178 q 125 294 149 294 q 87 312 103 294 q 71 354 71 330 q 125 415 71 387 q 282 485 203 450 q 286 671 286 576 q 279 893 286 754 q 189 884 189 884 q 118 951 118 884 q 269 1025 118 1025 q 619 913 619 1025 q 562 860 619 860 q 412 888 582 860 q 421 642 421 762 q 419 558 421 586 q 553 648 440 571 q 632 685 608 685 q 673 668 655 685 q 690 629 690 651 q 412 424 690 570 q 374 26 399 217 l 397 26 q 835 64 618 26 q 800 241 800 216 q 868 325 800 325 q 923 292 909 325 q 939 203 928 280 q 958 126 941 186 q 971 46 971 77 z "},"ł":{"ha":404,"x_min":-25,"x_max":425,"o":"m 425 637 q 265 471 425 590 l 265 454 q 276 215 265 363 q 286 9 286 67 q 279 -54 286 -37 q 229 -85 268 -85 q 151 26 167 -85 q 134 378 147 57 q 31 326 69 326 q -25 371 -25 326 q 18 421 -25 393 q 134 494 75 458 l 134 704 q 145 937 134 880 q 211 1010 161 1010 q 279 926 279 1010 q 273 819 279 928 q 267 589 267 706 q 332 656 300 623 q 383 685 361 685 q 412 671 399 685 q 425 637 425 657 z "},"Š":{"ha":867,"x_min":54,"x_max":848,"o":"m 848 997 q 841 933 848 977 q 833 867 833 889 l 833 846 q 824 747 833 772 q 766 713 810 713 q 701 776 718 713 q 690 879 692 806 q 496 945 597 945 q 281 861 366 945 q 197 646 197 777 q 251 484 197 534 q 414 406 288 449 q 568 347 527 367 q 676 269 639 314 q 732 93 732 203 q 646 -87 732 -21 q 410 -154 559 -154 q 229 -98 297 -154 l 228 -236 q 161 -304 227 -304 q 93 -214 93 -304 l 93 -115 q 104 142 93 81 q 172 225 120 225 q 228 192 214 225 q 242 134 236 172 q 253 69 249 85 q 390 -20 275 -20 q 590 100 590 -20 q 547 195 590 159 q 422 258 512 226 l 300 302 q 111 423 165 352 q 54 633 54 497 q 178 955 54 831 q 498 1079 302 1079 q 711 1017 611 1079 q 783 1088 730 1088 q 848 997 848 1088 m 745 1378 q 717 1341 745 1360 q 646 1297 682 1319 q 553 1211 607 1272 q 490 1165 513 1165 q 479 1166 483 1165 q 325 1325 412 1249 q 265 1392 265 1377 q 313 1428 265 1428 q 508 1278 377 1428 q 629 1390 568 1348 q 703 1425 680 1425 q 731 1409 716 1425 q 745 1378 745 1393 z "},"š":{"ha":632,"x_min":22,"x_max":626,"o":"m 602 734 q 533 667 602 667 q 496 684 509 667 q 476 715 486 699 q 364 770 434 770 q 244 633 244 770 q 266 552 244 586 q 332 486 284 523 q 465 373 439 404 q 521 227 521 309 q 450 50 521 118 q 267 -18 380 -18 q 90 38 159 -18 q 22 175 22 92 q 94 258 22 258 q 157 165 155 258 q 267 107 205 107 q 350 138 317 107 q 382 215 382 169 q 342 294 382 257 q 243 374 342 296 q 106 628 106 482 q 179 820 106 747 q 370 893 252 893 q 536 842 467 893 q 602 734 602 794 m 626 1202 q 597 1164 626 1183 q 526 1121 562 1143 q 434 1034 488 1095 q 371 989 394 989 q 359 990 363 989 q 205 1149 292 1072 q 146 1215 146 1201 q 194 1251 146 1251 q 389 1101 258 1251 q 510 1214 449 1172 q 583 1249 560 1249 q 611 1233 597 1249 q 626 1202 626 1217 z "},"Ž":{"ha":1267,"x_min":7,"x_max":1304,"o":"m 1304 221 q 1204 83 1304 169 q 898 -93 1072 -31 q 541 -155 724 -155 q 155 -65 309 -155 q 64 43 64 -12 q 123 131 64 77 q 281 262 202 197 q 865 851 715 627 q 463 924 728 924 q 201 899 331 924 q 71 875 71 875 q 7 943 7 875 q 93 1011 7 987 q 478 1065 288 1065 q 878 1006 726 1065 q 1018 872 1018 951 q 825 577 1018 784 q 236 47 618 355 q 541 -22 359 -22 q 854 31 705 -22 q 1099 174 1001 83 q 1178 253 1138 213 q 1236 286 1212 286 q 1283 266 1262 286 q 1304 221 1304 245 m 754 1378 q 726 1341 754 1360 q 654 1297 690 1319 q 562 1211 616 1272 q 499 1165 522 1165 q 488 1166 492 1165 q 334 1325 420 1249 q 274 1392 274 1377 q 322 1428 274 1428 q 517 1278 386 1428 q 638 1390 577 1348 q 711 1425 688 1425 q 740 1409 725 1425 q 754 1378 754 1393 z "},"ž":{"ha":717,"x_min":-3,"x_max":754,"o":"m 754 86 q 517 4 754 4 q 100 110 323 4 q 57 85 81 85 q 15 104 33 85 q -3 153 -3 124 q 97 339 -3 203 q 510 800 321 643 q 183 832 322 832 l 126 832 q 24 896 24 832 q 136 962 24 962 q 510 929 321 962 q 710 815 710 894 q 688 773 710 791 q 628 732 658 753 q 161 220 435 599 q 517 132 326 132 q 622 141 567 132 q 681 150 676 150 q 754 86 754 150 m 601 1202 q 572 1164 601 1183 q 501 1121 537 1143 q 409 1034 463 1095 q 346 989 369 989 q 334 990 338 989 q 180 1149 267 1072 q 121 1215 121 1201 q 169 1251 121 1251 q 363 1101 233 1251 q 485 1214 424 1172 q 558 1249 535 1249 q 586 1233 572 1249 q 601 1202 601 1217 z "},"¦":{"ha":694,"x_min":273,"x_max":427,"o":"m 403 192 q 425 -155 406 77 q 427 -194 427 -180 q 379 -249 427 -249 q 302 -144 314 -249 q 290 -47 296 -96 q 283 189 283 30 q 296 269 283 247 q 336 288 307 288 q 349 288 341 288 q 403 192 401 283 m 283 562 q 293 893 273 735 q 361 979 304 979 q 418 897 425 979 q 403 566 403 694 q 395 473 403 491 q 350 453 387 456 q 283 562 290 448 z "},"Ð":{"ha":921,"x_min":5,"x_max":880,"o":"m 880 503 q 737 136 880 267 q 330 5 593 5 q 155 37 218 5 q 96 118 96 66 q 139 164 96 164 l 142 164 q 176 443 176 298 q 71 427 71 427 q 18 469 18 427 q 175 550 18 532 q 136 771 169 671 q 50 747 58 747 q 5 803 5 747 q 114 899 5 862 q 421 937 227 937 q 763 824 644 937 q 880 503 880 712 m 745 492 q 422 810 745 810 q 253 796 350 810 q 300 559 296 682 q 418 567 402 567 q 498 514 498 567 q 450 465 498 475 q 300 456 445 465 q 262 129 298 290 q 353 123 303 123 q 745 492 745 123 z "},"ð":{"ha":732,"x_min":36,"x_max":699,"o":"m 699 869 q 665 829 699 846 q 570 791 617 810 q 689 446 689 622 q 587 131 689 248 q 313 14 484 14 q 111 91 185 14 q 36 300 36 168 q 115 508 36 435 q 339 582 195 582 q 564 492 471 582 q 449 739 545 632 q 322 662 391 713 q 252 624 269 624 q 210 671 210 624 q 375 804 210 718 q 289 821 325 821 q 214 807 262 821 q 143 793 166 793 q 68 854 68 793 q 256 943 68 943 q 496 865 401 943 q 637 918 616 918 q 681 904 664 918 q 699 869 699 890 m 553 326 q 355 457 498 457 q 163 309 163 457 q 322 140 163 140 q 553 326 504 140 z "},"Ý":{"ha":943,"x_min":-14,"x_max":1007,"o":"m 1007 1039 q 909 842 1007 988 q 489 386 726 566 l 490 385 l 490 300 q 491 156 490 241 q 492 47 492 72 q 479 -134 492 -88 q 412 -192 463 -192 q 350 -86 350 -192 q 353 9 350 -81 q 355 184 355 100 l 355 358 q 123 676 248 458 q -14 1038 -14 919 q 54 1111 -14 1111 q 110 1082 96 1111 q 134 1003 119 1061 q 164 901 150 938 q 421 490 252 669 q 829 985 656 682 q 882 1077 855 1031 q 935 1111 905 1111 q 986 1089 964 1111 q 1007 1039 1007 1068 m 649 1382 q 557 1250 649 1343 q 439 1166 475 1166 q 413 1177 425 1166 q 401 1200 401 1187 q 448 1259 401 1215 q 548 1370 451 1263 q 612 1414 589 1414 q 649 1382 649 1414 z "},"Þ":{"ha":1054,"x_min":-17,"x_max":996,"o":"m 996 525 q 889 222 996 336 q 603 109 783 109 q 317 174 481 109 q 281 -71 303 53 l 329 -71 q 415 -136 415 -71 q 309 -207 415 -207 q 28 -155 151 -207 q -17 -94 -17 -137 q 2 -47 -17 -68 q 41 -26 20 -26 q 146 -52 60 -26 q 205 628 205 290 q 196 857 205 756 l 192 900 q 66 864 96 864 q -1 929 -1 864 q 48 995 -1 972 q 214 1040 97 1017 q 386 1063 325 1063 q 471 997 471 1063 q 434 947 471 962 q 322 928 406 936 l 335 807 q 616 882 493 882 q 892 785 789 882 q 996 525 996 688 m 857 505 q 789 687 857 621 q 602 753 720 753 q 340 679 486 753 q 341 640 340 666 q 342 602 342 614 q 330 311 342 467 l 343 302 q 599 240 437 240 q 790 309 724 240 q 857 505 857 378 z "},"þ":{"ha":672,"x_min":-24,"x_max":628,"o":"m 628 447 q 546 252 628 324 q 321 180 465 180 q 201 201 264 180 q 127 -94 152 -31 q 32 -191 91 -191 q -24 -143 -24 -191 q 21 3 -24 -142 q 118 665 118 321 q 105 864 118 757 q 93 989 93 971 q 111 1035 93 1017 q 158 1053 130 1053 q 227 979 212 1053 q 248 734 233 952 l 260 734 q 528 656 429 734 q 628 447 628 577 m 493 446 q 431 565 493 519 q 264 610 369 610 l 249 610 q 225 325 245 478 q 329 306 283 306 q 493 446 493 306 z "},"­":{"ha":764,"x_min":58,"x_max":704,"o":"m 704 421 q 635 372 704 372 q 533 379 654 372 q 265 386 411 386 q 199 383 241 386 q 139 380 157 380 q 58 431 58 380 q 127 484 58 472 q 342 493 177 493 q 550 490 515 493 q 704 421 704 477 z "},"¹":{"ha":422,"x_min":26,"x_max":397,"o":"m 397 406 q 244 353 397 353 q 26 421 26 353 q 61 453 26 453 q 96 447 68 453 q 151 437 128 440 q 225 828 225 667 l 225 833 q 66 786 115 786 q 35 822 35 786 q 51 854 35 844 q 98 872 62 861 q 184 901 142 887 q 262 921 243 921 q 317 835 317 921 q 241 432 317 696 q 262 431 249 431 q 323 439 291 431 q 359 447 356 447 q 397 406 397 447 z "},"²":{"ha":458,"x_min":0,"x_max":452,"o":"m 452 452 q 374 381 452 411 q 155 349 290 349 q 0 401 0 349 q 23 435 0 419 q 85 472 54 454 q 241 603 193 542 q 294 749 294 670 q 216 850 294 841 q 82 793 123 793 q 41 823 41 793 q 75 868 41 840 q 244 925 144 925 q 385 755 385 925 q 147 428 385 572 q 208 424 182 424 q 334 453 260 424 q 418 485 413 485 q 452 452 452 485 z "},"³":{"ha":422,"x_min":-4,"x_max":396,"o":"m 396 538 q 333 402 396 452 q 161 353 271 353 q -4 431 -4 353 q 45 476 -4 476 q 87 439 85 476 q 160 422 121 422 q 306 539 306 422 q 237 647 306 612 q 155 664 220 656 q 107 703 107 670 q 146 739 107 739 q 220 724 163 739 q 277 790 277 724 q 199 856 277 856 q 155 848 182 856 q 117 840 127 840 q 85 876 85 840 q 212 922 85 922 q 323 886 281 922 q 366 793 366 850 q 302 690 366 732 q 396 538 396 637 z "},"½":{"ha":1088,"x_min":20,"x_max":1093,"o":"m 391 433 q 237 380 391 380 q 20 448 20 380 q 54 480 20 480 q 89 474 62 480 q 144 465 121 467 q 218 855 218 694 l 218 861 q 60 813 109 813 q 28 849 28 813 q 44 881 28 871 q 92 899 55 888 q 178 928 135 914 q 256 948 236 948 q 310 862 310 948 q 235 459 310 724 q 256 458 242 458 q 317 466 284 458 q 353 474 349 474 q 391 433 391 474 m 840 900 q 775 749 840 875 q 559 389 691 585 q 313 68 425 189 q 177 -39 214 -39 q 132 5 132 -39 q 214 115 132 27 q 425 368 335 243 q 726 879 572 574 q 793 950 762 950 q 840 900 840 950 m 1093 76 q 1016 5 1093 35 q 797 -27 931 -27 q 642 26 642 -27 q 665 59 642 43 q 726 96 695 78 q 883 227 834 166 q 936 373 936 294 q 858 474 936 465 q 724 417 765 417 q 683 448 683 417 q 717 492 683 465 q 886 549 785 549 q 1026 380 1026 549 q 789 52 1026 196 q 850 48 824 48 q 975 77 902 48 q 1059 109 1055 109 q 1093 76 1093 109 z "},"¼":{"ha":1079,"x_min":20,"x_max":1072,"o":"m 391 433 q 237 380 391 380 q 20 448 20 380 q 54 480 20 480 q 89 474 62 480 q 144 465 121 467 q 218 855 218 694 l 218 861 q 60 813 109 813 q 28 849 28 813 q 44 881 28 871 q 92 899 55 888 q 178 928 135 914 q 256 948 236 948 q 310 862 310 948 q 235 459 310 724 q 256 458 242 458 q 317 466 284 458 q 353 474 349 474 q 391 433 391 474 m 840 900 q 775 749 840 875 q 559 389 691 585 q 313 68 425 189 q 177 -39 214 -39 q 132 5 132 -39 q 214 115 132 27 q 425 368 335 243 q 726 879 572 574 q 793 950 762 950 q 840 900 840 950 m 1072 216 q 947 173 1072 187 q 932 62 937 115 q 928 9 930 35 q 886 -41 923 -41 q 844 10 844 -41 q 865 172 844 26 q 671 255 671 184 q 702 369 671 289 q 759 467 722 419 q 842 530 808 530 q 880 508 880 530 q 826 429 880 498 q 762 260 768 355 q 873 238 810 238 l 880 238 q 915 360 901 319 q 964 477 940 439 q 991 490 971 490 q 1045 456 1045 490 q 1019 388 1045 446 q 963 247 984 312 q 1010 254 985 249 q 1034 258 1030 258 q 1072 216 1072 258 z "},"¾":{"ha":1079,"x_min":-4,"x_max":1072,"o":"m 853 900 q 789 749 853 875 q 573 389 705 585 q 327 68 438 189 q 191 -39 228 -39 q 145 5 145 -39 q 227 115 145 27 q 438 368 349 243 q 739 879 585 574 q 806 950 775 950 q 853 900 853 950 m 1072 216 q 947 173 1072 187 q 932 62 937 115 q 928 9 930 35 q 886 -41 923 -41 q 844 10 844 -41 q 865 172 844 26 q 671 255 671 184 q 702 369 671 289 q 759 467 722 419 q 842 530 808 530 q 880 508 880 530 q 826 429 880 498 q 762 260 768 355 q 873 238 810 238 l 880 238 q 915 360 901 319 q 964 477 940 439 q 991 490 971 490 q 1045 456 1045 490 q 1019 388 1045 446 q 963 247 984 312 q 1010 254 985 249 q 1034 258 1030 258 q 1072 216 1072 258 m 396 538 q 333 402 396 452 q 161 353 271 353 q -4 431 -4 353 q 45 476 -4 476 q 87 439 85 476 q 160 422 121 422 q 306 539 306 422 q 237 647 306 612 q 155 664 220 656 q 107 703 107 670 q 146 739 107 739 q 220 724 163 739 q 277 790 277 724 q 199 856 277 856 q 155 848 182 856 q 117 840 127 840 q 85 876 85 840 q 212 922 85 922 q 323 886 281 922 q 366 793 366 850 q 302 690 366 732 q 396 538 396 637 z "},"ý":{"ha":616,"x_min":20,"x_max":587,"o":"m 587 863 q 518 567 587 777 q 289 75 454 373 q 222 -59 256 8 q 153 -111 193 -111 q 110 -91 129 -111 q 90 -46 90 -71 q 150 101 90 -2 q 292 347 287 339 q 81 681 159 526 q 20 847 20 804 q 78 908 20 908 q 151 844 115 908 q 217 702 184 773 q 351 471 275 578 q 431 741 401 600 q 464 889 463 886 q 525 945 484 945 q 587 863 587 945 m 473 1206 q 380 1074 473 1167 q 262 990 299 990 q 237 1001 248 990 q 225 1023 225 1011 q 271 1083 225 1038 q 372 1194 275 1087 q 436 1238 412 1238 q 473 1206 473 1238 z "},"×":{"ha":764,"x_min":104,"x_max":633,"o":"m 633 241 q 585 179 633 179 q 517 232 563 179 q 389 370 440 322 q 157 195 201 195 q 120 209 135 195 q 104 244 104 224 q 161 317 104 273 q 309 441 261 394 q 160 563 234 503 q 104 633 104 610 q 120 665 104 651 q 157 679 136 679 q 386 521 200 679 q 510 654 448 587 q 587 705 559 705 q 620 692 606 705 q 633 660 633 679 q 468 447 633 619 q 590 327 560 361 q 633 241 633 276 z "},"¤":{"ha":842,"x_min":68,"x_max":772,"o":"m 602 602 q 552 750 602 696 q 422 804 503 804 q 236 590 236 804 q 393 397 236 397 q 544 448 490 397 q 602 602 602 501 m 192 774 q 89 879 138 833 q 75 912 75 892 q 86 939 75 928 q 107 947 95 947 q 144 933 123 947 q 244 832 186 907 q 436 890 319 890 q 602 832 532 890 q 688 918 631 861 q 739 948 717 948 q 760 940 751 948 q 771 915 771 930 q 743 864 771 886 q 652 774 713 841 q 696 603 696 701 q 647 428 696 500 q 753 326 734 357 q 772 282 772 294 q 768 267 772 274 q 741 252 759 252 q 697 271 718 252 q 591 371 644 318 q 390 311 513 311 q 233 358 295 311 q 143 275 186 308 q 100 256 117 256 q 81 262 90 256 q 68 290 68 272 q 87 330 68 315 q 182 416 140 375 q 142 589 142 484 q 192 774 142 700 z "}}}
